# Blender 5.2.0 LTS
# www.blender.org
mtllib FL window.mtl
o FL_window
v 0.006152 0.013223 -0.001638
v 0.006118 0.013290 -0.001577
v 0.006126 0.013274 -0.001629
v 0.006373 0.012799 -0.001545
v 0.006122 0.013283 -0.001269
v 0.006523 0.012499 -0.000519
v 0.006638 0.012269 -0.001430
v 0.006135 0.013255 -0.000539
v 0.006148 0.013226 0.000015
v 0.006883 0.011761 -0.001318
v 0.006163 0.013193 0.000503
v 0.007011 0.011460 -0.000294
v 0.007109 0.011252 -0.001207
v 0.007304 0.010764 -0.001102
v 0.006556 0.012412 0.001194
v 0.006180 0.013155 0.000981
v 0.006199 0.013110 0.001427
v 0.006219 0.013065 0.001796
v 0.006240 0.013020 0.002073
v 0.007433 0.010369 -0.000050
v 0.007484 0.010275 -0.000996
v 0.007657 0.009758 -0.000883
v 0.007033 0.011375 0.001440
v 0.007790 0.009293 0.000186
v 0.007797 0.009326 -0.000789
v 0.007419 0.010329 0.001683
v 0.007777 0.009236 0.001935
v 0.007401 0.010290 0.003347
v 0.007750 0.009200 0.003626
v 0.007047 0.011292 0.003085
v 0.006619 0.012254 0.002833
v 0.006269 0.012960 0.002347
v 0.006303 0.012889 0.002606
v 0.006340 0.012811 0.002840
v 0.006381 0.012728 0.003051
v 0.006427 0.012634 0.003256
v 0.006477 0.012533 0.003455
v 0.006545 0.012390 0.003705
v 0.006745 0.011976 0.003612
v 0.006616 0.012240 0.003948
v 0.006698 0.012066 0.004220
v 0.006794 0.011848 0.004544
v 0.007053 0.011218 0.004528
v 0.006910 0.011553 0.004963
v 0.007041 0.011217 0.005427
v 0.007377 0.010251 0.005017
v 0.007129 0.010991 0.005730
v 0.007158 0.010921 0.005805
v 0.007193 0.010828 0.005870
v 0.007235 0.010714 0.005916
v 0.007408 0.010136 0.006089
v 0.007716 0.009175 0.005328
v 0.007552 0.009640 0.006236
v 0.007693 0.009163 0.006377
v 0.007552 0.009640 0.006236
v 0.007693 0.009163 0.006377
v 0.007734 0.009176 0.006377
v 0.007716 0.009175 0.005328
v 0.007593 0.009653 0.006236
v 0.007408 0.010136 0.006089
v 0.007757 0.009189 0.005329
v 0.007790 0.009215 0.003627
v 0.007750 0.009200 0.003626
v 0.007585 0.009674 0.005189
v 0.007449 0.010148 0.006089
v 0.007235 0.010714 0.005916
v 0.007818 0.009250 0.001936
v 0.007777 0.009236 0.001935
v 0.007622 0.009702 0.003502
v 0.007452 0.010167 0.005046
v 0.007276 0.010727 0.005916
v 0.007234 0.010843 0.005870
v 0.007193 0.010828 0.005870
v 0.007158 0.010921 0.005805
v 0.007319 0.010608 0.004919
v 0.007480 0.010196 0.003375
v 0.007199 0.010937 0.005805
v 0.007655 0.009730 0.001826
v 0.007169 0.011008 0.005731
v 0.007129 0.010991 0.005730
v 0.007189 0.010986 0.004809
v 0.007081 0.011233 0.005427
v 0.007041 0.011217 0.005427
v 0.006950 0.011569 0.004964
v 0.006910 0.011553 0.004963
v 0.006834 0.011865 0.004545
v 0.006794 0.011848 0.004544
v 0.007332 0.010657 0.003257
v 0.006737 0.012084 0.004220
v 0.006698 0.012066 0.004220
v 0.007501 0.010234 0.001709
v 0.006655 0.012259 0.003948
v 0.006616 0.012240 0.003948
v 0.006785 0.011994 0.003612
v 0.006584 0.012409 0.003705
v 0.006545 0.012390 0.003705
v 0.006998 0.011483 0.004248
v 0.006515 0.012552 0.003455
v 0.006477 0.012533 0.003455
v 0.007185 0.011066 0.003151
v 0.006466 0.012653 0.003256
v 0.006427 0.012634 0.003256
v 0.006647 0.012291 0.003191
v 0.006420 0.012747 0.003051
v 0.006381 0.012728 0.003051
v 0.006379 0.012831 0.002841
v 0.006340 0.012811 0.002840
v 0.006562 0.012472 0.002783
v 0.006341 0.012909 0.002607
v 0.006303 0.012889 0.002606
v 0.006755 0.012074 0.002884
v 0.006307 0.012980 0.002347
v 0.006269 0.012960 0.002347
v 0.006497 0.012614 0.002129
v 0.006279 0.013039 0.002073
v 0.006240 0.013020 0.002073
v 0.006258 0.013085 0.001796
v 0.006219 0.013065 0.001796
v 0.006238 0.013130 0.001427
v 0.006199 0.013110 0.001427
v 0.006459 0.012706 0.001130
v 0.006218 0.013174 0.000981
v 0.006180 0.013155 0.000981
v 0.006201 0.013213 0.000503
v 0.006163 0.013193 0.000503
v 0.006731 0.012156 0.001258
v 0.006187 0.013246 0.000015
v 0.006148 0.013226 0.000015
v 0.006423 0.012795 -0.000572
v 0.006174 0.013275 -0.000538
v 0.006135 0.013255 -0.000539
v 0.006160 0.013303 -0.001269
v 0.006122 0.013283 -0.001269
v 0.006700 0.012242 -0.000465
v 0.006156 0.013310 -0.001577
v 0.006118 0.013290 -0.001577
v 0.006126 0.013274 -0.001629
v 0.006412 0.012819 -0.001545
v 0.006164 0.013294 -0.001629
v 0.006191 0.013243 -0.001638
v 0.006152 0.013223 -0.001638
v 0.006373 0.012799 -0.001545
v 0.006638 0.012269 -0.001430
v 0.006677 0.012288 -0.001430
v 0.006883 0.011761 -0.001318
v 0.006922 0.011779 -0.001318
v 0.007109 0.011252 -0.001207
v 0.006941 0.011730 -0.000353
v 0.007149 0.011269 -0.001207
v 0.006969 0.011638 0.001381
v 0.007161 0.011225 -0.000235
v 0.007344 0.010779 -0.001101
v 0.007304 0.010764 -0.001102
v 0.007484 0.010275 -0.000996
v 0.006989 0.011551 0.003021
v 0.007176 0.011144 0.001499
v 0.007342 0.010705 0.001601
v 0.007346 0.010754 -0.000131
v 0.007525 0.010289 -0.000995
v 0.007518 0.010270 -0.000025
v 0.007698 0.009771 -0.000882
v 0.007657 0.009758 -0.000883
v 0.007683 0.009757 0.000088
v 0.007838 0.009339 -0.000788
v 0.007797 0.009326 -0.000789
v 0.007790 0.009293 0.000186
v 0.007832 0.009307 0.000186
vn -0.8873 -0.4611 0.0071
vn -0.8871 -0.4615 0.0002
vn -0.8900 -0.4560 -0.0000
vn -0.8905 -0.4550 -0.0030
vn -0.8886 -0.4587 -0.0030
vn -0.8990 -0.4380 -0.0052
vn -0.8979 -0.4403 -0.0024
vn -0.8898 -0.4563 -0.0016
vn -0.8902 -0.4556 -0.0038
vn -0.9055 -0.4243 -0.0085
vn -0.8909 -0.4541 -0.0051
vn -0.9178 -0.3969 -0.0092
vn -0.9206 -0.3904 -0.0100
vn -0.9316 -0.3631 -0.0193
vn -0.9025 -0.4307 -0.0067
vn -0.8913 -0.4534 -0.0053
vn -0.8912 -0.4536 -0.0064
vn -0.8913 -0.4534 -0.0068
vn -0.8925 -0.4510 -0.0085
vn -0.9401 -0.3405 -0.0146
vn -0.9419 -0.3354 -0.0174
vn -0.9478 -0.3184 -0.0195
vn -0.9230 -0.3846 -0.0097
vn -0.9483 -0.3169 -0.0173
vn -0.9499 -0.3121 -0.0170
vn -0.9435 -0.3311 -0.0155
vn -0.9494 -0.3136 -0.0188
vn -0.9466 -0.3217 -0.0190
vn -0.9508 -0.3091 -0.0217
vn -0.9300 -0.3672 -0.0130
vn -0.9070 -0.4210 -0.0077
vn -0.8940 -0.4481 -0.0052
vn -0.8941 -0.4478 -0.0048
vn -0.8941 -0.4479 -0.0048
vn -0.8943 -0.4475 -0.0052
vn -0.8956 -0.4448 -0.0068
vn -0.9003 -0.4353 -0.0079
vn -0.9151 -0.4032 -0.0084
vn -0.9015 -0.4327 -0.0049
vn -0.9084 -0.4180 -0.0085
vn -0.9238 -0.3827 -0.0056
vn -0.9384 -0.3452 -0.0154
vn -0.9252 -0.3793 -0.0126
vn -0.9425 -0.3342 -0.0034
vn -0.9498 -0.3124 -0.0178
vn -0.9399 -0.3404 0.0256
vn -0.9387 -0.3435 0.0311
vn -0.9416 -0.3359 0.0237
vn -0.9547 -0.2975 0.0020
vn -0.9591 -0.2831 -0.0034
vn -0.9523 -0.3044 -0.0207
vn -0.9553 -0.2953 -0.0160
vn -0.9568 -0.2898 -0.0241
vn -0.0955 0.2560 0.9619
vn 0.3233 -0.9463 -0.0079
vn 0.9656 0.2590 0.0235
vn 0.2689 -0.8382 0.4744
vn -0.0867 0.2602 0.9617
vn 0.9630 0.2684 0.0236
vn -0.0867 0.2601 0.9617
vn 0.9656 0.2590 0.0236
vn 0.9610 0.2757 0.0237
vn 0.3333 -0.9428 -0.0075
vn 0.3334 -0.9427 -0.0108
vn 0.9424 0.3346 -0.0014
vn 0.9610 0.2757 0.0236
vn 0.9562 0.2924 0.0158
vn -0.0941 0.2745 0.9570
vn 0.3335 -0.9427 -0.0141
vn 0.3303 -0.9439 -0.0079
vn 0.3232 -0.9460 -0.0237
vn 0.9589 0.2829 0.0237
vn 0.9589 0.2829 0.0236
vn 0.9653 0.2612 0.0076
vn 0.9539 0.2996 0.0158
vn 0.9413 0.3372 0.0157
vn 0.9378 0.3467 0.0158
vn -0.1571 0.4164 0.8955
vn -0.2370 0.5766 0.7819
vn 0.9437 0.3303 0.0157
vn 0.9597 0.2803 0.0210
vn 0.9596 0.2806 0.0223
vn 0.9595 0.2807 0.0225
vn 0.9553 0.2948 0.0212
vn 0.9352 0.3537 0.0157
vn 0.9594 0.2810 0.0238
vn -0.2696 0.6449 0.7152
vn 0.9316 0.3631 0.0157
vn -0.2995 0.7017 0.6465
vn 0.9316 0.3632 0.0158
vn 0.9251 0.3795 0.0158
vn -0.3077 0.7258 0.6153
vn 0.9124 0.4089 0.0157
vn -0.3074 0.7330 0.6068
vn 0.9050 0.4250 0.0157
vn -0.3229 0.7331 0.5986
vn 0.9413 0.3373 0.0157
vn 0.9517 0.3067 0.0157
vn 0.8975 0.4408 0.0158
vn -0.3472 0.7338 0.5839
vn 0.9499 0.3120 0.0174
vn 0.9506 0.3098 0.0192
vn 0.9510 0.3089 0.0166
vn -0.3510 0.7361 0.5788
vn -0.3546 0.7347 0.5784
vn -0.3489 0.7369 0.5790
vn -0.3567 0.7339 0.5781
vn 0.9005 0.4345 0.0158
vn 0.8927 0.4503 0.0159
vn 0.9101 0.4142 0.0092
vn -0.3605 0.7421 0.5652
vn 0.8895 0.4566 0.0158
vn -0.3537 0.7388 0.5737
vn -0.3701 0.7479 0.5511
vn 0.9205 0.3908 0.0054
vn 0.9153 0.4024 0.0158
vn -0.3750 0.7568 0.5354
vn 0.8896 0.4565 0.0158
vn -0.3854 0.7629 0.5191
vn 0.9269 0.3749 0.0157
vn 0.9394 0.3424 0.0141
vn 0.8864 0.4627 0.0157
vn -0.4007 0.7856 0.4714
vn 0.8927 0.4503 0.0158
vn 0.8846 0.4660 0.0157
vn -0.4108 0.8058 0.4266
vn 0.8846 0.4660 0.0158
vn -0.4249 0.8262 0.3699
vn 0.8895 0.4566 0.0157
vn 0.8847 0.4659 0.0158
vn -0.4338 0.8439 0.3155
vn 0.9006 0.4345 0.0158
vn 0.8846 0.4660 0.0159
vn -0.4413 0.8589 0.2600
vn -0.4502 0.8690 0.2055
vn 0.8847 0.4660 0.0158
vn -0.4547 0.8781 0.1490
vn -0.4566 0.8818 0.1182
vn 0.8893 0.4571 0.0149
vn -0.4578 0.8840 0.0947
vn 0.8871 0.4614 0.0121
vn -0.4584 0.8852 0.0791
vn 0.8869 0.4618 0.0130
vn -0.4586 0.8856 0.0737
vn 0.8894 0.4572 0.0073
vn 0.8863 0.4628 0.0157
vn -0.4557 0.8879 0.0629
vn -0.4561 0.8887 0.0472
vn 0.8896 0.4566 0.0078
vn -0.4625 0.8858 0.0392
vn 0.8975 0.4409 0.0079
vn 0.8956 0.4448 0.0060
vn -0.4608 0.8870 0.0286
vn 0.8896 0.4567 0.0079
vn -0.4614 0.8869 -0.0235
vn -0.2906 0.5576 -0.7776
vn 0.8897 0.4565 0.0080
vn 0.0632 -0.1422 -0.9878
vn 0.0864 -0.1727 -0.9812
vn 0.0863 -0.1727 -0.9812
vn 0.9095 0.4156 0.0079
vn 0.0784 -0.1803 -0.9805
vn 0.9125 0.4091 0.0078
vn 0.9223 0.3864 0.0078
vn 0.9080 0.4190 0.0074
vn 0.9125 0.4090 0.0079
vn 0.9164 0.4003 0.0073
vn 0.9164 0.4002 0.0068
vn 0.9164 0.4001 0.0068
vn 0.9165 0.4001 0.0063
vn 0.0815 -0.1796 -0.9804
vn 0.9290 0.3701 0.0065
vn 0.9295 0.3688 0.0070
vn 0.9287 0.3708 0.0059
vn 0.0784 -0.1805 -0.9805
vn 0.9353 0.3537 0.0078
vn 0.0791 -0.1818 -0.9801
vn 0.0789 -0.1894 -0.9787
vn 0.9121 0.4098 0.0088
vn 0.9114 0.4113 0.0107
vn 0.9144 0.4045 0.0151
vn 0.9289 0.3700 0.0157
vn 0.9262 0.3767 0.0157
vn 0.9223 0.3863 0.0079
vn 0.9378 0.3468 0.0158
vn 0.9295 0.3688 0.0088
vn 0.9295 0.3687 0.0081
vn 0.9350 0.3547 0.0094
vn 0.9344 0.3561 0.0124
vn 0.9367 0.3497 0.0171
vn 0.9461 0.3234 0.0150
vn 0.9483 0.3171 0.0157
vn 0.9461 0.3235 0.0155
vn 0.9377 0.3473 0.0067
vn 0.9463 0.3233 0.0079
vn 0.9463 0.3233 0.0084
vn 0.0785 -0.1873 -0.9792
vn 0.9540 0.2996 0.0079
vn 0.0789 -0.1893 -0.9787
vn 0.9542 0.2988 0.0165
vn 0.9550 0.2958 0.0201
vn 0.9558 0.2935 0.0177
vn 0.0798 -0.1875 -0.9790
vn 0.9561 0.2925 0.0158
vn 0.2909 -0.8650 -0.4089
vn 0.3232 -0.9458 -0.0315
vn 0.9568 0.2902 0.0156
vn 0.9456 0.3250 0.0178
vn 0.3202 -0.9469 -0.0286
vn 0.3180 -0.9477 -0.0287
vn 0.3233 -0.9459 -0.0284
vn 0.3255 -0.9451 -0.0283
vt 0.363525 0.187012
vt 0.360107 0.190918
vt 0.362549 0.189453
vt 0.360352 0.168945
vt 0.348633 0.191406
vt 0.321045 0.157227
vt 0.356201 0.147461
vt 0.321533 0.189941
vt 0.301025 0.188965
vt 0.352051 0.126465
vt 0.282959 0.187500
vt 0.312744 0.114746
vt 0.348145 0.105469
vt 0.344238 0.085938
vt 0.257812 0.153809
vt 0.265381 0.186035
vt 0.248779 0.184082
vt 0.235229 0.182129
vt 0.224854 0.180176
vt 0.303467 0.071777
vt 0.340088 0.066406
vt 0.335449 0.046387
vt 0.248901 0.111328
vt 0.294922 0.028320
vt 0.329102 0.029785
vt 0.239990 0.070312
vt 0.230957 0.026367
vt 0.178833 0.068848
vt 0.168701 0.024902
vt 0.188354 0.108398
vt 0.197388 0.146973
vt 0.214722 0.177734
vt 0.205078 0.174805
vt 0.196411 0.171387
vt 0.188599 0.167969
vt 0.181030 0.164062
vt 0.173584 0.159668
vt 0.164429 0.153809
vt 0.168823 0.135742
vt 0.155396 0.147949
vt 0.145386 0.140625
vt 0.133423 0.131836
vt 0.135254 0.105469
vt 0.118042 0.119629
vt 0.100952 0.106445
vt 0.117615 0.067383
vt 0.089905 0.097168
vt 0.087097 0.094238
vt 0.084717 0.090332
vt 0.082825 0.085449
vt 0.076050 0.062988
vt 0.106079 0.024902
vt 0.071045 0.043457
vt 0.069275 0.023926
vt 0.070190 0.024902
vt 0.072693 0.043457
vt 0.106140 0.026367
vt 0.168701 0.026855
vt 0.111389 0.045410
vt 0.077637 0.062988
vt 0.230957 0.027832
vt 0.230957 0.026367
vt 0.173218 0.045898
vt 0.116577 0.063965
vt 0.084351 0.084961
vt 0.086121 0.089355
vt 0.121155 0.081055
vt 0.177856 0.064453
vt 0.088379 0.093262
vt 0.234863 0.046875
vt 0.091003 0.096191
vt 0.125000 0.095703
vt 0.101929 0.104980
vt 0.119019 0.118652
vt 0.134399 0.130371
vt 0.182129 0.082520
vt 0.146240 0.139160
vt 0.239014 0.065918
vt 0.156372 0.146484
vt 0.165283 0.152832
vt 0.145508 0.115234
vt 0.174438 0.158691
vt 0.186035 0.098633
vt 0.181763 0.162598
vt 0.184204 0.147949
vt 0.189331 0.166504
vt 0.197021 0.169922
vt 0.199219 0.155273
vt 0.205688 0.173340
vt 0.195679 0.139160
vt 0.215210 0.176270
vt 0.223267 0.161133
vt 0.225220 0.178711
vt 0.235474 0.180664
vt 0.249023 0.182617
vt 0.260010 0.165039
vt 0.265381 0.184570
vt 0.283203 0.186035
vt 0.255371 0.142578
vt 0.301270 0.187500
vt 0.301025 0.188965
vt 0.322998 0.168457
vt 0.321777 0.188477
vt 0.348633 0.189453
vt 0.348633 0.191406
vt 0.319092 0.145996
vt 0.359863 0.189453
vt 0.358887 0.169434
vt 0.361572 0.188477
vt 0.362061 0.187012
vt 0.354736 0.147461
vt 0.350586 0.126465
vt 0.348145 0.105469
vt 0.314941 0.125000
vt 0.346436 0.105957
vt 0.250977 0.121582
vt 0.310547 0.104492
vt 0.342529 0.086426
vt 0.190674 0.117676
vt 0.246704 0.101562
vt 0.243042 0.084473
vt 0.306641 0.085938
vt 0.338623 0.066895
vt 0.302734 0.067383
vt 0.333740 0.046875
vt 0.298096 0.047852
vt 0.328369 0.031250
vt 0.294678 0.030273
s 1
usemtl e50:MI_Glass1
f 1/1/1 2/2/2 3/3/3
f 2/2/2 1/1/1 4/4/4
f 2/2/2 4/4/4 5/5/5
f 4/4/4 6/6/6 5/5/5
f 7/7/7 6/6/6 4/4/4
f 6/6/6 8/8/8 5/5/5
f 6/6/6 9/9/9 8/8/8
f 6/6/6 7/7/7 10/10/10
f 6/6/6 11/11/11 9/9/9
f 10/10/10 12/12/12 6/6/6
f 12/12/12 10/10/10 13/13/13
f 12/12/12 13/13/13 14/14/14
f 6/6/6 15/15/15 11/11/11
f 15/15/15 6/6/6 12/12/12
f 15/15/15 16/16/16 11/11/11
f 15/15/15 17/17/17 16/16/16
f 15/15/15 18/18/18 17/17/17
f 15/15/15 19/19/19 18/18/18
f 14/14/14 20/20/20 12/12/12
f 20/20/20 14/14/14 21/21/21
f 22/22/22 20/20/20 21/21/21
f 12/12/12 23/23/23 15/15/15
f 23/23/23 12/12/12 20/20/20
f 24/24/24 22/22/22 25/25/25
f 24/24/24 20/20/20 22/22/22
f 20/20/20 24/24/24 26/26/26
f 20/20/20 26/26/26 23/23/23
f 26/26/26 24/24/24 27/27/27
f 27/27/27 28/28/28 26/26/26
f 28/28/28 27/27/27 29/29/29
f 30/30/30 23/23/23 26/26/26
f 26/26/26 28/28/28 30/30/30
f 31/31/31 15/15/15 23/23/23
f 23/23/23 30/30/30 31/31/31
f 15/15/15 31/31/31 19/19/19
f 31/31/31 32/32/32 19/19/19
f 31/31/31 33/33/33 32/32/32
f 31/31/31 34/34/34 33/33/33
f 31/31/31 35/35/33 34/34/34
f 31/31/31 36/36/35 35/35/33
f 31/31/31 37/37/36 36/36/35
f 31/31/31 38/38/37 37/37/36
f 39/39/38 38/38/37 31/31/31
f 31/31/31 30/30/30 39/39/38
f 38/38/37 39/39/38 40/40/39
f 39/39/38 41/41/40 40/40/39
f 39/39/38 42/42/41 41/41/40
f 39/39/38 30/30/30 43/43/42
f 39/39/38 43/43/42 42/42/41
f 43/43/42 30/30/30 28/28/28
f 42/42/41 43/43/42 44/44/43
f 44/44/43 43/43/42 45/45/44
f 28/28/28 46/46/45 43/43/42
f 46/46/45 45/45/44 43/43/42
f 28/28/28 29/29/29 46/46/45
f 45/45/44 46/46/45 47/47/46
f 47/47/46 46/46/45 48/48/47
f 48/48/47 46/46/45 49/49/48
f 49/49/48 46/46/45 50/50/49
f 50/50/49 46/46/45 51/51/50
f 46/46/45 29/29/29 52/52/51
f 46/46/45 53/53/52 51/51/50
f 46/46/45 52/52/51 53/53/52
f 53/53/52 52/52/51 54/54/53
f 55/53/54 56/54/54 57/55/54
f 58/52/55 57/55/56 56/54/57
f 55/53/58 57/55/56 59/56/59
f 60/51/60 55/53/58 59/56/59
f 57/55/56 58/52/55 61/57/61
f 57/55/56 61/57/61 59/56/59
f 58/52/55 62/58/62 61/57/61
f 58/52/63 63/29/64 62/58/64
f 64/59/65 59/56/65 61/57/65
f 61/57/61 62/58/62 64/59/66
f 60/51/60 59/56/59 65/60/67
f 64/59/66 65/60/67 59/56/59
f 66/50/68 60/51/60 65/60/67
f 63/29/64 67/61/69 62/58/64
f 63/29/70 68/62/71 67/61/72
f 69/63/73 64/59/66 62/58/62
f 67/61/73 69/63/73 62/58/62
f 65/60/74 64/59/74 70/64/74
f 69/63/73 70/64/75 64/59/66
f 66/50/68 65/60/67 71/65/76
f 71/65/76 65/60/67 70/64/75
f 72/66/77 66/50/68 71/65/76
f 66/50/68 72/66/77 73/49/78
f 74/48/79 73/49/78 72/66/77
f 75/67/80 71/65/76 70/64/75
f 75/67/80 72/66/77 71/65/76
f 70/64/81 69/63/82 76/68/83
f 70/64/84 76/68/84 75/67/84
f 74/48/79 72/66/77 77/69/85
f 78/70/86 76/68/83 69/63/82
f 69/63/73 67/61/73 78/70/67
f 79/71/87 74/48/87 77/69/87
f 74/48/79 79/71/88 80/47/89
f 81/72/90 77/69/85 72/66/77
f 79/71/88 77/69/85 81/72/90
f 72/66/77 75/67/80 81/72/90
f 82/73/91 80/47/89 79/71/88
f 82/73/91 79/71/88 81/72/90
f 80/47/89 82/73/91 83/45/92
f 84/74/93 83/45/92 82/73/91
f 84/74/93 82/73/91 81/72/90
f 83/45/92 84/74/93 85/44/94
f 86/75/95 85/44/94 84/74/93
f 86/75/95 84/74/93 81/72/90
f 85/44/94 86/75/95 87/42/96
f 88/76/97 81/72/90 75/67/80
f 88/76/97 75/67/80 76/68/98
f 89/77/99 87/42/96 86/75/95
f 87/42/96 89/77/99 90/41/100
f 91/78/101 88/76/102 76/68/103
f 76/68/103 78/70/67 91/78/101
f 92/79/104 90/41/105 89/77/106
f 90/41/105 92/79/104 93/40/107
f 94/39/108 92/79/109 89/77/99
f 94/39/110 89/77/110 86/75/110
f 95/80/111 93/40/111 92/79/111
f 94/39/108 95/80/112 92/79/109
f 93/40/113 95/80/112 96/38/114
f 94/39/115 86/75/115 97/81/115
f 86/75/95 81/72/90 97/81/116
f 98/82/117 96/38/117 95/80/117
f 96/38/114 98/82/118 99/37/119
f 100/83/120 97/81/120 81/72/120
f 81/72/121 88/76/121 100/83/121
f 101/84/122 99/37/119 98/82/118
f 99/37/119 101/84/122 102/36/123
f 103/85/124 98/82/118 95/80/112
f 103/85/124 101/84/122 98/82/118
f 95/80/112 94/39/108 103/85/124
f 104/86/125 102/36/123 101/84/122
f 103/85/124 104/86/125 101/84/122
f 102/36/123 104/86/125 105/35/126
f 106/87/127 105/35/126 104/86/125
f 105/35/126 106/87/127 107/34/128
f 104/86/125 103/85/124 108/88/129
f 108/88/129 106/87/127 104/86/125
f 109/89/130 107/34/128 106/87/127
f 108/88/129 109/89/130 106/87/127
f 107/34/128 109/89/130 110/33/131
f 103/85/124 111/90/132 108/88/129
f 94/39/108 111/90/132 103/85/124
f 112/91/133 110/33/131 109/89/130
f 110/33/131 112/91/133 113/32/134
f 109/89/130 108/88/129 114/92/129
f 114/92/129 112/91/133 109/89/130
f 111/90/132 114/92/129 108/88/129
f 115/93/127 113/32/134 112/91/133
f 114/92/129 115/93/127 112/91/133
f 113/32/134 115/93/127 116/19/135
f 117/94/136 116/19/135 115/93/127
f 114/92/129 117/94/136 115/93/127
f 116/19/135 117/94/136 118/18/137
f 119/95/127 118/18/137 117/94/136
f 118/18/137 119/95/127 120/17/138
f 117/94/136 114/92/129 121/96/139
f 121/96/139 119/95/127 117/94/136
f 122/97/136 120/17/138 119/95/127
f 121/96/139 122/97/136 119/95/127
f 120/17/138 122/97/136 123/16/140
f 124/98/141 123/16/140 122/97/136
f 121/96/139 124/98/141 122/97/136
f 123/16/140 124/98/141 125/11/142
f 126/99/108 121/96/139 114/92/129
f 114/92/129 111/90/132 126/99/108
f 127/100/143 125/11/142 124/98/141
f 125/11/144 127/100/144 128/101/144
f 129/102/145 124/98/141 121/96/139
f 124/98/141 129/102/145 127/100/143
f 130/103/146 128/101/147 127/100/143
f 129/102/145 130/103/146 127/100/143
f 128/101/147 130/103/146 131/8/148
f 132/104/149 131/8/148 130/103/146
f 129/102/145 132/104/149 130/103/146
f 131/8/148 132/104/149 133/105/150
f 121/96/139 134/106/151 129/102/145
f 134/106/152 121/96/152 126/99/152
f 135/107/153 133/105/153 132/104/153
f 133/105/150 135/107/154 136/2/155
f 135/107/154 137/3/156 136/2/155
f 138/108/154 132/104/149 129/102/145
f 132/104/149 138/108/154 135/107/154
f 139/109/154 137/3/156 135/107/154
f 140/110/157 137/3/156 139/109/154
f 135/107/154 140/110/157 139/109/154
f 140/110/157 135/107/154 138/108/154
f 137/3/156 140/110/157 141/1/158
f 142/4/159 141/1/158 140/110/157
f 142/4/159 140/110/157 138/108/154
f 143/7/160 142/4/159 138/108/154
f 143/7/160 138/108/154 144/111/151
f 129/102/145 144/111/151 138/108/154
f 144/111/151 129/102/145 134/106/151
f 145/10/160 143/7/160 144/111/151
f 145/10/160 144/111/151 146/112/161
f 134/106/151 146/112/161 144/111/151
f 147/113/162 145/10/160 146/112/161
f 146/112/161 134/106/151 148/114/163
f 126/99/108 148/114/163 134/106/151
f 147/113/162 146/112/161 149/115/164
f 148/114/163 149/115/164 146/112/161
f 148/114/165 126/99/165 150/116/165
f 111/90/132 150/116/166 126/99/108
f 149/115/167 148/114/168 151/117/169
f 148/114/168 150/116/170 151/117/169
f 152/118/171 147/113/171 149/115/171
f 151/117/172 152/118/173 149/115/174
f 147/113/175 152/118/176 153/14/177
f 154/21/178 153/14/177 152/118/176
f 150/116/179 111/90/180 155/119/181
f 94/39/108 155/119/181 111/90/132
f 155/119/181 94/39/108 97/81/116
f 97/81/116 100/83/182 155/119/181
f 155/119/181 156/120/183 150/116/179
f 156/120/183 155/119/181 100/83/182
f 156/120/183 151/117/184 150/116/179
f 100/83/182 157/121/185 156/120/183
f 157/121/185 100/83/182 88/76/97
f 156/120/186 158/122/187 151/117/172
f 158/122/188 156/120/189 157/121/190
f 152/118/173 151/117/172 158/122/187
f 88/76/191 91/78/192 157/121/193
f 158/122/194 159/123/194 152/118/194
f 154/21/178 152/118/176 159/123/195
f 158/122/188 157/121/190 160/124/196
f 159/123/195 158/122/188 160/124/196
f 91/78/192 160/124/196 157/121/193
f 161/125/197 154/21/197 159/123/197
f 160/124/196 161/125/198 159/123/195
f 154/21/199 161/125/198 162/22/199
f 91/78/192 163/126/200 160/124/196
f 161/125/198 160/124/196 163/126/200
f 163/126/200 91/78/201 78/70/202
f 164/127/203 162/22/203 161/125/203
f 163/126/200 164/127/204 161/125/198
f 162/22/178 164/127/204 165/25/205
f 166/24/206 165/25/205 164/127/204
f 163/126/200 78/70/202 167/128/207
f 164/127/204 163/126/200 167/128/207
f 166/24/206 164/127/204 167/128/207
f 67/61/208 167/128/208 78/70/208
f 68/62/209 166/24/210 167/128/211
f 68/62/209 167/128/211 67/61/212
