# Blender 5.2.0 LTS
# www.blender.org
mtllib FR window.mtl
o FR_window
v -0.006118 0.013290 -0.001577
v -0.006152 0.013223 -0.001638
v -0.006126 0.013274 -0.001629
v -0.006373 0.012799 -0.001545
v -0.006122 0.013283 -0.001269
v -0.006523 0.012499 -0.000519
v -0.006638 0.012269 -0.001430
v -0.006135 0.013255 -0.000539
v -0.006148 0.013226 0.000015
v -0.006883 0.011761 -0.001318
v -0.006163 0.013193 0.000503
v -0.007011 0.011460 -0.000294
v -0.007109 0.011252 -0.001207
v -0.007304 0.010764 -0.001102
v -0.006556 0.012412 0.001194
v -0.006180 0.013155 0.000981
v -0.006199 0.013110 0.001427
v -0.006219 0.013065 0.001796
v -0.006240 0.013020 0.002073
v -0.007433 0.010369 -0.000050
v -0.007484 0.010275 -0.000996
v -0.007657 0.009758 -0.000883
v -0.007033 0.011375 0.001440
v -0.007790 0.009293 0.000186
v -0.007797 0.009326 -0.000789
v -0.007419 0.010329 0.001683
v -0.007777 0.009236 0.001935
v -0.007401 0.010290 0.003347
v -0.007750 0.009200 0.003626
v -0.007047 0.011292 0.003085
v -0.006619 0.012254 0.002833
v -0.006269 0.012960 0.002347
v -0.006303 0.012889 0.002606
v -0.006340 0.012811 0.002840
v -0.006381 0.012728 0.003051
v -0.006427 0.012634 0.003256
v -0.006477 0.012533 0.003455
v -0.006545 0.012390 0.003705
v -0.006745 0.011976 0.003612
v -0.006616 0.012240 0.003948
v -0.006698 0.012066 0.004220
v -0.006794 0.011848 0.004544
v -0.007053 0.011218 0.004528
v -0.006910 0.011553 0.004963
v -0.007041 0.011217 0.005427
v -0.007377 0.010251 0.005017
v -0.007129 0.010991 0.005730
v -0.007158 0.010921 0.005805
v -0.007193 0.010828 0.005870
v -0.007235 0.010714 0.005916
v -0.007408 0.010136 0.006089
v -0.007716 0.009175 0.005328
v -0.007552 0.009640 0.006236
v -0.007693 0.009163 0.006377
v -0.007552 0.009640 0.006236
v -0.007734 0.009176 0.006377
v -0.007693 0.009163 0.006377
v -0.007716 0.009175 0.005328
v -0.007593 0.009653 0.006236
v -0.007408 0.010136 0.006089
v -0.007757 0.009189 0.005329
v -0.007790 0.009215 0.003627
v -0.007750 0.009200 0.003626
v -0.007585 0.009674 0.005189
v -0.007449 0.010148 0.006089
v -0.007235 0.010714 0.005916
v -0.007818 0.009250 0.001936
v -0.007777 0.009236 0.001935
v -0.007622 0.009702 0.003502
v -0.007452 0.010167 0.005046
v -0.007276 0.010727 0.005916
v -0.007234 0.010843 0.005870
v -0.007193 0.010828 0.005870
v -0.007158 0.010921 0.005805
v -0.007319 0.010608 0.004919
v -0.007480 0.010196 0.003375
v -0.007199 0.010937 0.005805
v -0.007655 0.009730 0.001826
v -0.007169 0.011008 0.005731
v -0.007129 0.010991 0.005730
v -0.007189 0.010986 0.004809
v -0.007081 0.011233 0.005427
v -0.007041 0.011217 0.005427
v -0.006950 0.011569 0.004964
v -0.006910 0.011553 0.004963
v -0.006834 0.011865 0.004545
v -0.006794 0.011848 0.004544
v -0.007332 0.010657 0.003257
v -0.006738 0.012084 0.004220
v -0.006698 0.012066 0.004220
v -0.006998 0.011483 0.004248
v -0.006655 0.012259 0.003948
v -0.006616 0.012240 0.003948
v -0.006785 0.011994 0.003612
v -0.006584 0.012409 0.003705
v -0.006545 0.012390 0.003705
v -0.007185 0.011066 0.003151
v -0.006515 0.012552 0.003455
v -0.006477 0.012533 0.003455
v -0.006647 0.012291 0.003191
v -0.006466 0.012653 0.003256
v -0.006427 0.012634 0.003256
v -0.006420 0.012747 0.003051
v -0.006381 0.012728 0.003051
v -0.006379 0.012831 0.002841
v -0.006340 0.012811 0.002840
v -0.006562 0.012472 0.002783
v -0.006341 0.012909 0.002607
v -0.006303 0.012889 0.002606
v -0.006755 0.012074 0.002884
v -0.006307 0.012980 0.002347
v -0.006269 0.012960 0.002347
v -0.006497 0.012614 0.002129
v -0.006279 0.013039 0.002073
v -0.006240 0.013020 0.002073
v -0.006258 0.013085 0.001796
v -0.006219 0.013065 0.001796
v -0.006238 0.013130 0.001427
v -0.006199 0.013110 0.001427
v -0.006459 0.012706 0.001130
v -0.006218 0.013174 0.000981
v -0.006180 0.013155 0.000981
v -0.006201 0.013213 0.000503
v -0.006163 0.013193 0.000503
v -0.006731 0.012156 0.001258
v -0.006187 0.013246 0.000015
v -0.006148 0.013226 0.000015
v -0.006423 0.012795 -0.000572
v -0.006174 0.013275 -0.000538
v -0.006135 0.013255 -0.000539
v -0.006160 0.013303 -0.001269
v -0.006122 0.013283 -0.001269
v -0.006700 0.012242 -0.000465
v -0.006156 0.013310 -0.001577
v -0.006118 0.013290 -0.001577
v -0.006126 0.013274 -0.001629
v -0.006412 0.012819 -0.001545
v -0.006164 0.013294 -0.001629
v -0.006191 0.013243 -0.001638
v -0.006152 0.013223 -0.001638
v -0.006373 0.012799 -0.001545
v -0.006638 0.012269 -0.001430
v -0.006677 0.012288 -0.001430
v -0.006883 0.011761 -0.001318
v -0.006922 0.011779 -0.001318
v -0.007109 0.011252 -0.001207
v -0.006941 0.011730 -0.000353
v -0.007149 0.011269 -0.001207
v -0.006969 0.011638 0.001381
v -0.007161 0.011225 -0.000235
v -0.007344 0.010779 -0.001101
v -0.007304 0.010764 -0.001102
v -0.007484 0.010275 -0.000996
v -0.006989 0.011551 0.003021
v -0.007176 0.011144 0.001499
v -0.007342 0.010705 0.001601
v -0.007346 0.010754 -0.000131
v -0.007501 0.010234 0.001709
v -0.007525 0.010289 -0.000995
v -0.007518 0.010270 -0.000025
v -0.007698 0.009771 -0.000882
v -0.007657 0.009758 -0.000883
v -0.007683 0.009757 0.000088
v -0.007838 0.009339 -0.000788
v -0.007797 0.009326 -0.000789
v -0.007790 0.009293 0.000186
v -0.007832 0.009307 0.000186
vn 0.8871 -0.4616 0.0002
vn 0.8873 -0.4611 0.0072
vn 0.8899 -0.4561 0.0002
vn 0.8905 -0.4550 -0.0030
vn 0.8886 -0.4587 -0.0030
vn 0.8990 -0.4380 -0.0052
vn 0.8979 -0.4403 -0.0024
vn 0.8898 -0.4563 -0.0016
vn 0.8902 -0.4556 -0.0038
vn 0.9055 -0.4243 -0.0085
vn 0.8909 -0.4541 -0.0051
vn 0.9178 -0.3969 -0.0092
vn 0.9206 -0.3904 -0.0100
vn 0.9316 -0.3631 -0.0192
vn 0.9025 -0.4307 -0.0066
vn 0.8913 -0.4534 -0.0053
vn 0.8912 -0.4536 -0.0064
vn 0.8913 -0.4534 -0.0068
vn 0.8925 -0.4510 -0.0086
vn 0.9401 -0.3405 -0.0146
vn 0.9419 -0.3355 -0.0174
vn 0.9478 -0.3182 -0.0194
vn 0.9230 -0.3846 -0.0097
vn 0.9482 -0.3172 -0.0167
vn 0.9499 -0.3120 -0.0170
vn 0.9436 -0.3308 -0.0156
vn 0.9494 -0.3136 -0.0188
vn 0.9466 -0.3217 -0.0190
vn 0.9508 -0.3091 -0.0217
vn 0.9300 -0.3672 -0.0130
vn 0.9070 -0.4210 -0.0077
vn 0.8940 -0.4481 -0.0052
vn 0.8941 -0.4478 -0.0048
vn 0.8941 -0.4479 -0.0048
vn 0.8943 -0.4475 -0.0052
vn 0.8955 -0.4450 -0.0067
vn 0.9002 -0.4353 -0.0078
vn 0.9151 -0.4032 -0.0084
vn 0.9015 -0.4327 -0.0049
vn 0.9084 -0.4180 -0.0085
vn 0.9238 -0.3827 -0.0056
vn 0.9384 -0.3452 -0.0154
vn 0.9252 -0.3794 -0.0126
vn 0.9425 -0.3342 -0.0034
vn 0.9498 -0.3124 -0.0178
vn 0.9399 -0.3404 0.0256
vn 0.9387 -0.3435 0.0311
vn 0.9416 -0.3359 0.0237
vn 0.9547 -0.2975 0.0020
vn 0.9590 -0.2834 -0.0035
vn 0.9523 -0.3044 -0.0207
vn 0.9553 -0.2953 -0.0160
vn 0.9568 -0.2898 -0.0241
vn 0.0864 0.2596 0.9619
vn 0.0950 0.2562 0.9619
vn 0.0955 0.2561 0.9619
vn -0.3129 -0.9498 -0.0043
vn -0.3249 -0.9457 -0.0066
vn -0.3126 -0.9499 -0.0043
vn 0.0860 0.2597 0.9619
vn 0.0814 0.2623 0.9615
vn -0.3249 -0.9457 -0.0068
vn -0.9561 0.2931 0.0086
vn -0.9430 0.3325 0.0152
vn -0.9568 0.2898 0.0241
vn -0.3331 -0.9428 -0.0108
vn -0.9525 0.3040 0.0162
vn -0.9425 0.3333 0.0244
vn 0.0815 0.2623 0.9615
vn -0.9599 0.2804 0.0037
vn 0.0942 0.2729 0.9574
vn -0.3255 -0.9453 -0.0214
vn -0.3253 -0.9454 -0.0214
vn -0.9519 0.3056 0.0235
vn -0.9450 0.3263 0.0213
vn -0.9603 0.2784 0.0171
vn 0.0940 0.2727 0.9575
vn -0.9549 0.2970 0.0064
vn 0.1595 0.4189 0.8939
vn 0.1592 0.4212 0.8929
vn 0.2391 0.5723 0.7844
vn -0.9510 0.3087 0.0141
vn -0.9404 0.3400 0.0026
vn -0.9553 0.2949 0.0202
vn 0.2402 0.5708 0.7852
vn -0.9507 0.3095 0.0204
vn 0.3027 0.7034 0.6432
vn 0.3026 0.7035 0.6430
vn -0.9364 0.3506 0.0139
vn -0.9314 0.3639 0.0092
vn -0.9219 0.3873 0.0113
vn 0.3028 0.7256 0.6179
vn -0.9264 0.3763 0.0116
vn 0.3026 0.7257 0.6179
vn 0.3044 0.7320 0.6095
vn -0.9262 0.3768 0.0098
vn 0.3048 0.7319 0.6095
vn 0.3216 0.7333 0.5991
vn -0.9221 0.3869 0.0113
vn 0.3227 0.7329 0.5989
vn -0.9455 0.3253 0.0165
vn 0.3462 0.7331 0.5855
vn 0.3472 0.7325 0.5855
vn -0.9240 0.3820 0.0149
vn 0.3580 0.7379 0.5721
vn 0.3586 0.7377 0.5720
vn -0.9122 0.4095 0.0120
vn -0.9085 0.4179 0.0085
vn -0.9015 0.4327 0.0049
vn 0.3707 0.7484 0.5500
vn -0.9001 0.4356 0.0084
vn 0.3712 0.7482 0.5499
vn -0.9326 0.3607 0.0143
vn 0.3846 0.7649 0.5168
vn 0.3850 0.7647 0.5167
vn -0.8991 0.4376 0.0098
vn -0.8950 0.4460 0.0068
vn 0.3975 0.7857 0.4740
vn -0.8944 0.4473 0.0050
vn 0.3979 0.7856 0.4739
vn 0.4105 0.8046 0.4290
vn -0.8929 0.4502 0.0095
vn 0.4109 0.8045 0.4289
vn 0.4238 0.8250 0.3738
vn 0.4241 0.8249 0.3738
vn -0.8958 0.4443 0.0082
vn -0.8912 0.4535 0.0074
vn 0.4347 0.8427 0.3176
vn -0.8904 0.4550 0.0093
vn 0.4349 0.8427 0.3175
vn -0.9070 0.4210 0.0092
vn 0.4436 0.8572 0.2617
vn -0.8951 0.4458 0.0086
vn -0.8891 0.4576 0.0080
vn 0.4494 0.8692 0.2061
vn -0.8891 0.4576 0.0078
vn 0.4539 0.8780 0.1518
vn -0.8890 0.4579 0.0078
vn 0.4563 0.8819 0.1189
vn 0.4563 0.8818 0.1190
vn -0.8931 0.4498 0.0060
vn -0.8886 0.4587 0.0072
vn 0.4571 0.8840 0.0974
vn -0.8886 0.4587 0.0059
vn 0.4571 0.8841 0.0974
vn 0.4573 0.8857 0.0805
vn -0.8887 0.4584 0.0050
vn -0.9021 0.4314 0.0071
vn 0.4588 0.8862 0.0651
vn 0.4588 0.8861 0.0652
vn -0.8916 0.4528 0.0027
vn -0.8883 0.4593 0.0043
vn 0.4601 0.8865 0.0488
vn -0.8876 0.4607 0.0016
vn 0.4602 0.8865 0.0488
vn 0.4606 0.8868 0.0381
vn -0.8872 0.4613 0.0010
vn -0.8986 0.4387 0.0035
vn 0.4613 0.8869 -0.0256
vn 0.4611 0.8870 -0.0253
vn 0.4377 0.8389 -0.3235
vn -0.8911 0.4538 0.0011
vn -0.8871 0.4616 -0.0002
vn 0.4611 0.8870 -0.0256
vn 0.4377 0.8389 -0.3234
vn 0.4381 0.8388 -0.3231
vn -0.8873 0.4612 -0.0072
vn -0.8900 0.4560 -0.0001
vn 0.0754 0.1308 -0.9885
vn -0.0653 -0.1399 -0.9880
vn -0.0654 -0.1401 -0.9880
vn -0.0839 -0.1716 -0.9816
vn -0.0839 -0.1715 -0.9816
vn -0.0852 -0.1726 -0.9813
vn -0.8973 0.4415 -0.0001
vn -0.0837 -0.1754 -0.9809
vn -0.0836 -0.1755 -0.9809
vn -0.9069 0.4213 0.0013
vn -0.0809 -0.1789 -0.9805
vn -0.9102 0.4141 0.0054
vn -0.9203 0.3911 0.0048
vn -0.9147 0.4040 0.0086
vn -0.9229 0.3851 0.0074
vn -0.0780 -0.1823 -0.9801
vn -0.9328 0.3604 0.0064
vn -0.0779 -0.1823 -0.9801
vn -0.0777 -0.1854 -0.9796
vn -0.9195 0.3929 0.0123
vn -0.9277 0.3732 0.0108
vn -0.9405 0.3396 0.0138
vn -0.9355 0.3532 0.0099
vn -0.9509 0.3091 0.0175
vn -0.9426 0.3337 0.0103
vn -0.9461 0.3236 0.0145
vn -0.0794 -0.1873 -0.9791
vn -0.9489 0.3150 0.0163
vn -0.0795 -0.1872 -0.9791
vn -0.9501 0.3114 0.0181
vn -0.0805 -0.1872 -0.9790
vn -0.9495 0.3134 0.0184
vn -0.3180 -0.9477 -0.0288
vn -0.3146 -0.9488 -0.0297
vn -0.3145 -0.9488 -0.0297
vn -0.9482 0.3172 0.0190
vn -0.3181 -0.9476 -0.0291
vt 0.988281 0.580566
vt 0.984375 0.583984
vt 0.987305 0.583008
vt 0.966797 0.580566
vt 0.988770 0.569092
vt 0.955078 0.541016
vt 0.944824 0.576172
vt 0.987793 0.541992
vt 0.986816 0.521484
vt 0.923828 0.572021
vt 0.985352 0.503418
vt 0.912598 0.532471
vt 0.903320 0.567627
vt 0.884277 0.563721
vt 0.951660 0.478027
vt 0.983887 0.485840
vt 0.982422 0.469238
vt 0.980469 0.455566
vt 0.978516 0.445312
vt 0.870117 0.523193
vt 0.864746 0.559570
vt 0.844727 0.555176
vt 0.909668 0.468750
vt 0.826660 0.515137
vt 0.828613 0.549561
vt 0.868164 0.459473
vt 0.824219 0.450684
vt 0.867188 0.398438
vt 0.823242 0.388184
vt 0.906250 0.408203
vt 0.945312 0.417480
vt 0.976074 0.435059
vt 0.973145 0.425293
vt 0.969727 0.416992
vt 0.966309 0.409180
vt 0.962402 0.401367
vt 0.958496 0.394043
vt 0.952637 0.384766
vt 0.934082 0.388672
vt 0.946289 0.375488
vt 0.939453 0.365723
vt 0.930176 0.353516
vt 0.903809 0.354980
vt 0.918457 0.337891
vt 0.905273 0.320801
vt 0.866211 0.337402
vt 0.895996 0.309570
vt 0.893066 0.307129
vt 0.889160 0.304688
vt 0.884766 0.302734
vt 0.862305 0.295898
vt 0.823730 0.325684
vt 0.842773 0.290527
vt 0.822754 0.288574
vt 0.824219 0.289551
vt 0.842773 0.291992
vt 0.825195 0.325684
vt 0.825195 0.388184
vt 0.844238 0.331055
vt 0.861816 0.297363
vt 0.825684 0.450684
vt 0.824219 0.450684
vt 0.843750 0.393066
vt 0.862793 0.336426
vt 0.883789 0.304199
vt 0.888672 0.306152
vt 0.879395 0.340820
vt 0.862793 0.397461
vt 0.892090 0.308105
vt 0.844727 0.454590
vt 0.895020 0.311035
vt 0.894043 0.344727
vt 0.903809 0.321777
vt 0.917480 0.338867
vt 0.929199 0.354492
vt 0.880859 0.401855
vt 0.937988 0.366699
vt 0.914062 0.365723
vt 0.944824 0.376465
vt 0.951172 0.385742
vt 0.896973 0.405762
vt 0.957031 0.394531
vt 0.946289 0.404297
vt 0.960938 0.401855
vt 0.964844 0.409668
vt 0.968262 0.417480
vt 0.953613 0.419434
vt 0.971680 0.425781
vt 0.937500 0.415527
vt 0.974609 0.435547
vt 0.959473 0.443359
vt 0.977051 0.445801
vt 0.978516 0.445312
vt 0.979004 0.456055
vt 0.980469 0.469238
vt 0.962891 0.480469
vt 0.982422 0.485840
vt 0.983887 0.503662
vt 0.940430 0.475586
vt 0.985352 0.521729
vt 0.966309 0.543213
vt 0.986328 0.542236
vt 0.987305 0.568848
vt 0.943848 0.539062
vt 0.986816 0.580322
vt 0.966797 0.579102
vt 0.986328 0.582031
vt 0.984375 0.582520
vt 0.945312 0.574707
vt 0.924316 0.570312
vt 0.922852 0.534912
vt 0.903809 0.566162
vt 0.919434 0.471191
vt 0.902832 0.530273
vt 0.884277 0.562256
vt 0.884277 0.563721
vt 0.916016 0.410645
vt 0.899902 0.466797
vt 0.882324 0.462891
vt 0.884277 0.526367
vt 0.864258 0.458984
vt 0.865234 0.558105
vt 0.865723 0.522217
vt 0.845703 0.553711
vt 0.845703 0.518066
vt 0.829590 0.548584
vt 0.828125 0.515137
s 1
usemtl e50:MI_Glass1
f 1/1/1 2/2/2 3/3/3
f 2/2/2 1/1/1 4/4/4
f 5/5/5 4/4/4 1/1/1
f 4/4/4 5/5/5 6/6/6
f 7/7/7 4/4/4 6/6/6
f 6/6/6 5/5/5 8/8/8
f 6/6/6 8/8/8 9/9/9
f 6/6/6 10/10/10 7/7/7
f 11/11/11 6/6/6 9/9/9
f 10/10/10 6/6/6 12/12/12
f 12/12/12 13/13/13 10/10/10
f 12/12/12 14/14/14 13/13/13
f 6/6/6 11/11/11 15/15/15
f 15/15/15 12/12/12 6/6/6
f 15/15/15 11/11/11 16/16/16
f 15/15/15 16/16/16 17/17/17
f 15/15/15 17/17/17 18/18/18
f 19/19/19 15/15/15 18/18/18
f 14/14/14 12/12/12 20/20/20
f 20/20/20 21/21/21 14/14/14
f 22/22/22 21/21/21 20/20/20
f 12/12/12 15/15/15 23/23/23
f 23/23/23 20/20/20 12/12/12
f 22/22/22 24/24/24 25/25/25
f 24/24/24 22/22/22 20/20/20
f 20/20/20 26/26/26 24/24/24
f 20/20/20 23/23/23 26/26/26
f 26/26/26 27/27/27 24/24/24
f 28/28/28 27/27/27 26/26/26
f 27/27/27 28/28/28 29/29/29
f 30/30/30 26/26/26 23/23/23
f 26/26/26 30/30/30 28/28/28
f 31/31/31 23/23/23 15/15/15
f 23/23/23 31/31/31 30/30/30
f 15/15/15 19/19/19 31/31/31
f 31/31/31 19/19/19 32/32/32
f 31/31/31 32/32/32 33/33/33
f 31/31/31 33/33/33 34/34/34
f 31/31/31 34/34/34 35/35/33
f 31/31/31 35/35/33 36/36/35
f 31/31/31 36/36/35 37/37/36
f 31/31/31 37/37/36 38/38/37
f 38/38/37 39/39/38 31/31/31
f 31/31/31 39/39/38 30/30/30
f 39/39/38 38/38/37 40/40/39
f 39/39/38 40/40/39 41/41/40
f 39/39/38 41/41/40 42/42/41
f 39/39/38 43/43/42 30/30/30
f 39/39/38 42/42/41 43/43/42
f 43/43/42 28/28/28 30/30/30
f 42/42/41 44/44/43 43/43/42
f 44/44/43 45/45/44 43/43/42
f 28/28/28 43/43/42 46/46/45
f 45/45/44 46/46/45 43/43/42
f 28/28/28 46/46/45 29/29/29
f 46/46/45 45/45/44 47/47/46
f 47/47/46 48/48/47 46/46/45
f 48/48/47 49/49/48 46/46/45
f 49/49/48 50/50/49 46/46/45
f 50/50/49 51/51/50 46/46/45
f 46/46/45 52/52/51 29/29/29
f 46/46/45 51/51/50 53/53/52
f 46/46/45 53/53/52 52/52/51
f 53/53/52 54/54/53 52/52/51
f 55/53/54 56/55/55 57/54/56
f 56/55/57 58/52/58 57/54/59
f 56/55/55 55/53/54 59/56/60
f 60/51/61 59/56/60 55/53/54
f 56/55/57 61/57/62 58/52/58
f 59/56/63 61/57/64 56/55/65
f 62/58/66 58/52/58 61/57/62
f 58/52/58 62/58/66 63/29/66
f 59/56/63 64/59/67 61/57/64
f 64/59/67 62/58/68 61/57/64
f 59/56/60 60/51/61 65/60/69
f 64/59/67 59/56/63 65/60/70
f 66/50/71 65/60/69 60/51/61
f 67/61/72 63/29/66 62/58/66
f 63/29/66 67/61/72 68/62/73
f 64/59/67 69/63/74 62/58/68
f 69/63/74 67/61/75 62/58/68
f 65/60/70 70/64/76 64/59/67
f 69/63/74 64/59/67 70/64/76
f 65/60/69 66/50/71 71/65/77
f 71/65/78 70/64/76 65/60/70
f 72/66/79 71/65/77 66/50/71
f 66/50/71 73/49/80 72/66/79
f 74/48/81 72/66/79 73/49/80
f 70/64/76 71/65/78 75/67/82
f 72/66/83 75/67/82 71/65/78
f 70/64/76 76/68/84 69/63/74
f 75/67/82 76/68/84 70/64/76
f 72/66/79 74/48/81 77/69/85
f 78/70/86 69/63/74 76/68/84
f 67/61/75 69/63/74 78/70/86
f 74/48/81 79/71/87 77/69/85
f 74/48/81 80/47/88 79/71/87
f 81/72/89 72/66/83 77/69/90
f 79/71/91 81/72/89 77/69/90
f 75/67/82 72/66/83 81/72/89
f 80/47/88 82/73/92 79/71/87
f 82/73/93 81/72/89 79/71/91
f 80/47/88 83/45/94 82/73/92
f 83/45/94 84/74/95 82/73/92
f 84/74/96 81/72/89 82/73/93
f 83/45/94 85/44/97 84/74/95
f 85/44/97 86/75/98 84/74/95
f 86/75/99 81/72/89 84/74/96
f 85/44/97 87/42/100 86/75/98
f 88/76/101 75/67/82 81/72/89
f 75/67/82 88/76/101 76/68/84
f 87/42/100 89/77/102 86/75/98
f 87/42/100 90/41/103 89/77/102
f 86/75/99 91/78/104 81/72/89
f 90/41/103 92/79/105 89/77/102
f 90/41/103 93/40/106 92/79/105
f 94/39/107 86/75/99 89/77/108
f 94/39/107 89/77/108 92/79/109
f 94/39/107 91/78/104 86/75/99
f 93/40/106 95/80/110 92/79/105
f 95/80/111 94/39/107 92/79/109
f 93/40/106 96/38/112 95/80/110
f 91/78/104 97/81/113 81/72/89
f 81/72/89 97/81/113 88/76/101
f 96/38/112 98/82/114 95/80/110
f 96/38/112 99/37/115 98/82/114
f 100/83/116 95/80/111 98/82/117
f 94/39/107 95/80/111 100/83/116
f 99/37/115 101/84/118 98/82/114
f 100/83/116 98/82/117 101/84/119
f 99/37/115 102/36/120 101/84/118
f 102/36/120 103/85/121 101/84/118
f 103/85/122 100/83/116 101/84/119
f 102/36/120 104/35/123 103/85/121
f 104/35/123 105/86/124 103/85/121
f 104/35/123 106/34/125 105/86/124
f 100/83/116 103/85/122 107/87/126
f 107/87/126 103/85/122 105/86/127
f 106/34/125 108/88/128 105/86/124
f 108/88/129 107/87/126 105/86/127
f 106/34/125 109/33/130 108/88/128
f 100/83/116 107/87/126 110/89/131
f 94/39/107 100/83/116 110/89/131
f 109/33/130 111/90/132 108/88/128
f 109/33/130 112/32/132 111/90/132
f 107/87/126 108/88/129 113/91/133
f 113/91/133 108/88/129 111/90/134
f 113/91/133 110/89/131 107/87/126
f 112/32/132 114/92/135 111/90/132
f 113/91/133 111/90/134 114/92/136
f 112/32/132 115/93/135 114/92/135
f 115/93/135 116/94/137 114/92/135
f 116/94/138 113/91/133 114/92/136
f 115/93/135 117/18/137 116/94/137
f 117/18/137 118/95/139 116/94/137
f 117/18/137 119/17/140 118/95/139
f 113/91/133 116/94/138 120/96/141
f 120/96/141 116/94/138 118/95/142
f 119/17/140 121/97/143 118/95/139
f 120/96/141 118/95/142 121/97/144
f 119/17/140 122/16/145 121/97/143
f 122/16/145 123/98/146 121/97/143
f 120/96/141 121/97/144 123/98/147
f 122/16/145 124/11/146 123/98/146
f 125/99/148 113/91/133 120/96/141
f 110/89/131 113/91/133 125/99/148
f 124/11/146 126/100/149 123/98/146
f 124/11/146 127/9/150 126/100/149
f 128/101/151 120/96/141 123/98/147
f 128/101/151 123/98/147 126/100/152
f 127/9/150 129/102/153 126/100/149
f 128/101/151 126/100/152 129/102/154
f 127/9/150 130/8/155 129/102/153
f 130/8/155 131/103/156 129/102/153
f 128/101/151 129/102/154 131/103/157
f 130/8/155 132/5/156 131/103/156
f 120/96/141 128/101/151 133/104/158
f 133/104/158 125/99/148 120/96/141
f 132/5/156 134/105/159 131/103/156
f 132/5/156 135/1/160 134/105/159
f 136/3/161 134/105/159 135/1/160
f 137/106/162 128/101/151 131/103/157
f 134/105/163 137/106/162 131/103/157
f 134/105/164 136/3/165 138/107/166
f 139/108/167 134/105/163 138/107/168
f 136/3/169 139/108/170 138/107/169
f 134/105/163 139/108/167 137/106/162
f 136/3/169 140/2/171 139/108/170
f 141/4/172 139/108/170 140/2/171
f 139/108/170 141/4/172 137/106/173
f 142/7/174 137/106/173 141/4/172
f 137/106/173 142/7/174 143/109/174
f 128/101/151 137/106/162 143/109/175
f 128/101/151 143/109/175 133/104/158
f 144/10/176 143/109/174 142/7/174
f 143/109/174 144/10/176 145/110/177
f 133/104/158 143/109/175 145/110/178
f 146/13/179 145/110/177 144/10/176
f 145/110/178 147/111/180 133/104/158
f 125/99/148 133/104/158 147/111/180
f 145/110/177 146/13/179 148/112/179
f 148/112/181 147/111/180 145/110/178
f 147/111/180 149/113/182 125/99/148
f 110/89/131 125/99/148 149/113/182
f 147/111/180 148/112/181 150/114/183
f 149/113/182 147/111/180 150/114/183
f 146/13/179 151/115/184 148/112/179
f 150/114/183 148/112/181 151/115/185
f 146/13/179 152/116/186 151/115/184
f 153/21/187 151/115/184 152/116/186
f 149/113/182 154/117/188 110/89/131
f 94/39/107 110/89/131 154/117/188
f 154/117/188 91/78/104 94/39/107
f 97/81/113 91/78/104 154/117/188
f 155/118/189 154/117/188 149/113/182
f 154/117/188 155/118/189 97/81/113
f 149/113/182 150/114/183 155/118/189
f 97/81/113 155/118/189 156/119/190
f 156/119/190 88/76/101 97/81/113
f 155/118/189 150/114/183 157/120/191
f 157/120/191 156/119/190 155/118/189
f 151/115/185 157/120/191 150/114/183
f 158/121/192 88/76/101 156/119/190
f 88/76/101 158/121/192 76/68/84
f 76/68/84 158/121/192 78/70/86
f 159/122/193 157/120/191 151/115/185
f 151/115/184 153/21/187 159/122/187
f 156/119/190 157/120/191 160/123/194
f 157/120/191 159/122/193 160/123/194
f 156/119/190 160/123/194 158/121/192
f 153/21/187 161/124/195 159/122/187
f 160/123/194 159/122/193 161/124/196
f 153/21/187 162/22/197 161/124/195
f 158/121/192 160/123/194 163/125/198
f 161/124/196 163/125/198 160/123/194
f 163/125/198 78/70/86 158/121/192
f 162/22/197 164/126/199 161/124/195
f 164/126/200 163/125/198 161/124/196
f 162/22/197 165/25/199 164/126/199
f 166/24/201 164/126/202 165/25/203
f 78/70/86 163/125/198 167/127/204
f 163/125/198 164/126/200 167/127/204
f 164/126/202 166/24/201 167/127/205
f 78/70/86 167/127/204 67/61/75
f 68/62/73 167/127/205 166/24/201
f 167/127/205 68/62/73 67/61/72
