# Blender 5.2.0 LTS
# www.blender.org
mtllib RL window.mtl
o RL_window
v 0.007749 0.009612 -0.007971
v 0.007660 0.010007 -0.007993
v 0.007619 0.009993 -0.007993
v 0.007790 0.009626 -0.007971
v 0.007460 0.010458 -0.008019
v 0.007760 0.009722 -0.010111
v 0.007719 0.009708 -0.010111
v 0.007500 0.010473 -0.008019
v 0.007741 0.009785 -0.011528
v 0.007699 0.009771 -0.011528
v 0.007684 0.009817 -0.011546
v 0.007725 0.009831 -0.011545
v 0.007659 0.009892 -0.011514
v 0.007700 0.009906 -0.011514
v 0.007662 0.010020 -0.011451
v 0.007621 0.010006 -0.011451
v 0.007621 0.010143 -0.011369
v 0.007580 0.010129 -0.011369
v 0.007638 0.010090 -0.010124
v 0.007575 0.010278 -0.011261
v 0.007534 0.010263 -0.011261
v 0.007513 0.010453 -0.011106
v 0.007472 0.010439 -0.011106
v 0.007495 0.010498 -0.010153
v 0.007413 0.010724 -0.010854
v 0.007372 0.010709 -0.010854
v 0.007333 0.010932 -0.010644
v 0.007293 0.010916 -0.010644
v 0.007326 0.010916 -0.008044
v 0.007285 0.010900 -0.008044
v 0.007109 0.011335 -0.008068
v 0.007345 0.010899 -0.010189
v 0.007253 0.011131 -0.010425
v 0.007213 0.011115 -0.010426
v 0.007174 0.011321 -0.010199
v 0.007134 0.011304 -0.010199
v 0.007156 0.011356 -0.009605
v 0.007074 0.011548 -0.009918
v 0.007035 0.011531 -0.009919
v 0.007149 0.011352 -0.008068
v 0.006976 0.011765 -0.009630
v 0.006936 0.011747 -0.009631
v 0.006921 0.011854 -0.008097
v 0.006882 0.011836 -0.008097
v 0.006671 0.012287 -0.008124
v 0.006930 0.011856 -0.008841
v 0.006710 0.012306 -0.008123
v 0.006883 0.011963 -0.009350
v 0.006844 0.011945 -0.009351
v 0.006792 0.012153 -0.009064
v 0.006753 0.012134 -0.009064
v 0.006703 0.012334 -0.008773
v 0.006664 0.012315 -0.008773
v 0.006625 0.012488 -0.008510
v 0.006586 0.012469 -0.008510
v 0.006561 0.012615 -0.008267
v 0.006522 0.012596 -0.008268
v 0.006541 0.012645 -0.008145
v 0.006502 0.012626 -0.008147
v 0.006537 0.012659 -0.008173
v 0.006498 0.012640 -0.008174
v 0.007752 0.009604 -0.007751
v 0.007619 0.009993 -0.007773
v 0.007660 0.010007 -0.007773
v 0.007461 0.010454 -0.007799
v 0.007794 0.009618 -0.007751
v 0.007772 0.009529 -0.005892
v 0.007501 0.010468 -0.007798
v 0.007813 0.009542 -0.005891
v 0.007789 0.009443 -0.003798
v 0.007681 0.009945 -0.005907
v 0.007831 0.009457 -0.003798
v 0.007797 0.009386 -0.002410
v 0.007695 0.009874 -0.003827
v 0.007839 0.009399 -0.002410
v 0.007661 0.009812 -0.002436
v 0.007703 0.009826 -0.002435
v 0.007486 0.010315 -0.002465
v 0.007527 0.010330 -0.002465
v 0.007524 0.010367 -0.003861
v 0.007343 0.010814 -0.002493
v 0.007302 0.010798 -0.002494
v 0.007106 0.011281 -0.002522
v 0.007513 0.010426 -0.005925
v 0.007343 0.010846 -0.003884
v 0.007145 0.011298 -0.002522
v 0.006918 0.011803 -0.002551
v 0.006878 0.011785 -0.002552
v 0.007139 0.011337 -0.003909
v 0.007337 0.010889 -0.005943
v 0.006673 0.012308 -0.002581
v 0.006634 0.012288 -0.002582
v 0.006370 0.012816 -0.002608
v 0.006921 0.011821 -0.003935
v 0.007136 0.011371 -0.005961
v 0.007321 0.010925 -0.007823
v 0.007281 0.010908 -0.007823
v 0.007102 0.011351 -0.007848
v 0.007141 0.011368 -0.007848
v 0.006923 0.011845 -0.005979
v 0.006915 0.011865 -0.007875
v 0.006875 0.011847 -0.007876
v 0.006662 0.012302 -0.007900
v 0.006686 0.012313 -0.003958
v 0.006696 0.012318 -0.005997
v 0.006701 0.012321 -0.007900
v 0.006481 0.012758 -0.007920
v 0.006442 0.012739 -0.007920
v 0.006429 0.012772 -0.007910
v 0.006534 0.012657 -0.007280
v 0.006468 0.012792 -0.007910
v 0.006457 0.012814 -0.007889
v 0.006418 0.012794 -0.007889
v 0.006419 0.012886 -0.007712
v 0.006380 0.012867 -0.007712
v 0.006368 0.012984 -0.007451
v 0.006329 0.012964 -0.007451
v 0.006330 0.013056 -0.007195
v 0.006291 0.013036 -0.007196
v 0.006300 0.013110 -0.006934
v 0.006261 0.013091 -0.006934
v 0.006459 0.012797 -0.006589
v 0.006273 0.013160 -0.006633
v 0.006235 0.013140 -0.006633
v 0.006251 0.013200 -0.006331
v 0.006212 0.013180 -0.006331
v 0.006427 0.012854 -0.006018
v 0.006232 0.013233 -0.006039
v 0.006193 0.013214 -0.006040
v 0.006215 0.013263 -0.005734
v 0.006176 0.013243 -0.005734
v 0.006415 0.012867 -0.005183
v 0.006201 0.013286 -0.005427
v 0.006162 0.013266 -0.005428
v 0.006188 0.013306 -0.005044
v 0.006149 0.013286 -0.005045
v 0.006175 0.013324 -0.004628
v 0.006137 0.013304 -0.004628
v 0.006411 0.012857 -0.003979
v 0.006162 0.013339 -0.004116
v 0.006123 0.013319 -0.004117
v 0.006153 0.013345 -0.003604
v 0.006115 0.013324 -0.003605
v 0.006146 0.013342 -0.002998
v 0.006107 0.013322 -0.002998
v 0.006111 0.013315 -0.002696
v 0.006409 0.012835 -0.002607
v 0.006150 0.013335 -0.002696
v 0.006115 0.013306 -0.002648
v 0.006170 0.013294 -0.002630
v 0.006132 0.013274 -0.002631
v 0.006154 0.013326 -0.002648
v 0.006522 0.012596 -0.008268
v 0.006502 0.012626 -0.008147
v 0.006498 0.012640 -0.008174
v 0.006671 0.012287 -0.008124
v 0.006586 0.012469 -0.008510
v 0.006664 0.012315 -0.008773
v 0.007004 0.011588 -0.009223
v 0.006753 0.012134 -0.009064
v 0.006882 0.011836 -0.008097
v 0.006844 0.011945 -0.009351
v 0.007109 0.011335 -0.008068
v 0.006936 0.011747 -0.009631
v 0.007035 0.011531 -0.009919
v 0.007285 0.010900 -0.008044
v 0.007134 0.011304 -0.010199
v 0.007488 0.010380 -0.010148
v 0.007460 0.010458 -0.008019
v 0.007213 0.011115 -0.010426
v 0.007293 0.010916 -0.010644
v 0.007372 0.010709 -0.010854
v 0.007472 0.010439 -0.011106
v 0.007534 0.010263 -0.011261
v 0.007619 0.009993 -0.007993
v 0.007580 0.010129 -0.011369
v 0.007719 0.009708 -0.010111
v 0.007749 0.009612 -0.007971
v 0.007621 0.010006 -0.011451
v 0.007659 0.009892 -0.011514
v 0.007699 0.009771 -0.011528
v 0.007684 0.009817 -0.011546
v 0.006111 0.013315 -0.002696
v 0.006132 0.013274 -0.002631
v 0.006115 0.013306 -0.002648
v 0.006370 0.012816 -0.002608
v 0.006107 0.013322 -0.002998
v 0.006373 0.012837 -0.003979
v 0.006115 0.013324 -0.003605
v 0.006123 0.013319 -0.004117
v 0.006634 0.012288 -0.002582
v 0.006137 0.013304 -0.004628
v 0.006764 0.012048 -0.003947
v 0.006878 0.011785 -0.002552
v 0.006377 0.012848 -0.005183
v 0.006149 0.013286 -0.005045
v 0.006162 0.013266 -0.005428
v 0.006176 0.013243 -0.005734
v 0.006389 0.012834 -0.006018
v 0.006193 0.013214 -0.006040
v 0.006212 0.013180 -0.006331
v 0.006770 0.012063 -0.005988
v 0.006421 0.012777 -0.006589
v 0.006235 0.013140 -0.006633
v 0.006261 0.013091 -0.006934
v 0.006495 0.012637 -0.007280
v 0.006291 0.013036 -0.007196
v 0.006329 0.012964 -0.007451
v 0.006380 0.012867 -0.007712
v 0.006418 0.012794 -0.007889
v 0.006429 0.012772 -0.007910
v 0.006442 0.012739 -0.007920
v 0.006662 0.012302 -0.007900
v 0.006875 0.011847 -0.007876
v 0.007102 0.011351 -0.007848
v 0.007196 0.011113 -0.005952
v 0.007281 0.010908 -0.007823
v 0.007461 0.010454 -0.007799
v 0.007201 0.011075 -0.003897
v 0.007106 0.011281 -0.002522
v 0.007302 0.010798 -0.002494
v 0.007556 0.010171 -0.005916
v 0.007619 0.009993 -0.007773
v 0.007752 0.009604 -0.007751
v 0.007772 0.009529 -0.005892
v 0.007569 0.010107 -0.003844
v 0.007486 0.010315 -0.002465
v 0.007789 0.009443 -0.003798
v 0.007661 0.009812 -0.002436
v 0.007797 0.009386 -0.002410
vn -0.0189 0.0498 0.9986
vn -0.0195 0.0497 0.9986
vn -0.0194 0.0497 0.9986
vn -0.0192 0.0498 0.9986
vn -0.0188 0.0498 0.9986
vn -0.0209 0.0483 0.9986
vn 0.9461 0.3239 0.0013
vn 0.9488 0.3159 0.0019
vn 0.9463 0.3234 0.0022
vn 0.3194 -0.9465 -0.0467
vn 0.3166 -0.9474 -0.0467
vn 0.3141 -0.9482 -0.0468
vn 0.1055 -0.3166 -0.9427
vn 0.1056 -0.3165 -0.9427
vn -0.1344 0.4070 -0.9035
vn -0.1141 0.3472 -0.9308
vn -0.1140 0.3473 -0.9308
vn 0.9490 0.3153 0.0010
vn 0.9493 0.3143 0.0009
vn 0.9493 0.3143 0.0011
vn -0.1344 0.4069 -0.9035
vn -0.1587 0.4785 -0.8636
vn 0.9483 0.3173 0.0013
vn -0.1590 0.4786 -0.8635
vn -0.1824 0.5420 -0.8203
vn 0.9476 0.3195 0.0012
vn -0.1830 0.5420 -0.8202
vn 0.9465 0.3227 0.0016
vn 0.9388 0.3445 0.0024
vn -0.2034 0.5901 -0.7813
vn 0.9449 0.3274 0.0013
vn -0.2041 0.5900 -0.7812
vn -0.2188 0.6138 -0.7585
vn 0.9423 0.3347 0.0018
vn -0.2194 0.6136 -0.7585
vn 0.9398 0.3416 0.0030
vn -0.2318 0.6292 -0.7419
vn 0.9377 0.3476 0.0024
vn -0.2324 0.6291 -0.7418
vn -0.2503 0.6539 -0.7140
vn 0.9345 0.3561 0.0037
vn -0.2509 0.6538 -0.7139
vn 0.9292 0.3695 0.0036
vn -0.0232 0.0467 0.9986
vn -0.0232 0.0468 0.9986
vn -0.0265 0.0452 0.9986
vn 0.9326 0.3608 0.0049
vn -0.2661 0.6776 -0.6856
vn 0.9280 0.3724 0.0072
vn -0.2668 0.6774 -0.6855
vn -0.2831 0.6896 -0.6665
vn 0.9253 0.3791 0.0053
vn -0.2840 0.6893 -0.6665
vn 0.9234 0.3838 0.0053
vn -0.3007 0.6981 -0.6498
vn 0.9167 0.3995 0.0053
vn -0.3015 0.6978 -0.6497
vn 0.9207 0.3901 0.0067
vn -0.3172 0.7123 -0.6261
vn 0.9141 0.4053 0.0063
vn -0.3179 0.7121 -0.6260
vn -0.0321 0.0443 0.9985
vn -0.0318 0.0445 0.9985
vn -0.0477 0.0377 0.9982
vn 0.9113 0.4116 0.0072
vn 0.9081 0.4186 0.0127
vn -0.0479 0.0378 0.9981
vn 0.9036 0.4283 0.0114
vn -0.3336 0.7244 -0.6033
vn 0.9073 0.4204 0.0047
vn -0.3341 0.7242 -0.6032
vn -0.3439 0.7379 -0.5807
vn 0.9040 0.4274 0.0085
vn -0.3442 0.7378 -0.5806
vn 0.9028 0.4299 0.0090
vn -0.3544 0.7491 -0.5597
vn -0.3546 0.7488 -0.5599
vn -0.3671 0.7659 -0.5278
vn 0.8992 0.4374 0.0089
vn -0.3671 0.7660 -0.5278
vn -0.3720 0.7846 -0.4960
vn 0.8976 0.4404 0.0185
vn -0.3714 0.7848 -0.4962
vn 0.8943 0.4457 0.0399
vn -0.0609 0.0344 0.9976
vn -0.0619 0.0340 0.9975
vn -0.3747 0.7965 -0.4744
vn 0.9247 0.3757 0.0623
vn -0.4099 0.7837 0.4667
vn -0.3738 0.7968 -0.4748
vn -0.4100 0.7837 0.4667
vn 0.0179 -0.0491 -0.9986
vn 0.0180 -0.0491 -0.9986
vn 0.0186 -0.0480 -0.9987
vn 0.3138 -0.9486 -0.0416
vn 0.3176 -0.9473 -0.0417
vn 0.3137 -0.9486 -0.0416
vn 0.3081 -0.9505 -0.0413
vn 0.9466 0.3223 0.0028
vn 0.9465 0.3228 0.0004
vn 0.9456 0.3253 0.0008
vn 0.9504 0.3110 0.0035
vn 0.3080 -0.9505 -0.0413
vn 0.3063 -0.9510 -0.0411
vn 0.9476 0.3194 0.0054
vn 0.9514 0.3080 0.0054
vn 0.3063 -0.9511 -0.0411
vn -0.0239 0.0510 0.9984
vn -0.0233 0.0514 0.9984
vn -0.0234 0.0514 0.9984
vn 0.9526 0.3042 0.0070
vn 0.9482 0.3177 0.0066
vn -0.0239 0.0509 0.9984
vn -0.0257 0.0492 0.9985
vn 0.9398 0.3416 0.0070
vn -0.0258 0.0492 0.9985
vn 0.9399 0.3415 0.0061
vn -0.0271 0.0478 0.9985
vn 0.9305 0.3662 0.0082
vn -0.0284 0.0465 0.9985
vn 0.9393 0.3431 0.0029
vn 0.9381 0.3463 0.0008
vn 0.9296 0.3685 0.0063
vn -0.0283 0.0465 0.9985
vn 0.9186 0.3950 0.0079
vn -0.0303 0.0448 0.9985
vn -0.0304 0.0448 0.9985
vn 0.9177 0.3972 0.0062
vn 0.9057 0.4238 0.0079
vn 0.9289 0.3702 0.0029
vn -0.0299 0.0398 0.9988
vn -0.0294 0.0347 0.9990
vn 0.9066 0.4219 0.0067
vn 0.8971 0.4416 0.0094
vn 0.9178 0.3971 0.0031
vn 0.9280 0.3725 0.0006
vn 0.0197 -0.0469 -0.9987
vn 0.0212 -0.0461 -0.9987
vn 0.9178 0.3970 0.0014
vn 0.9070 0.4212 0.0034
vn 0.0219 -0.0443 -0.9988
vn 0.9072 0.4207 0.0015
vn 0.0220 -0.0442 -0.9988
vn 0.0170 -0.0414 -0.9990
vn 0.8975 0.4409 0.0077
vn 0.8993 0.4373 0.0042
vn 0.9021 0.4315 0.0017
vn 0.0027 -0.0194 -0.9998
vn 0.0029 -0.0219 -0.9998
vn -0.2047 0.3992 -0.8937
vn 0.8968 0.4423 -0.0048
vn 0.8955 0.4451 0.0026
vn -0.2095 0.4086 -0.8884
vn 0.9212 0.3889 -0.0129
vn -0.3936 0.7882 -0.4732
vn 0.8903 0.4554 0.0045
vn -0.3944 0.7890 -0.4711
vn -0.4118 0.8179 -0.4018
vn 0.8908 0.4544 0.0043
vn -0.4122 0.8178 -0.4016
vn -0.4249 0.8357 -0.3481
vn 0.8905 0.4550 0.0048
vn -0.4250 0.8356 -0.3481
vn -0.4380 0.8585 -0.2668
vn 0.8905 0.4550 0.0054
vn -0.4381 0.8584 -0.2668
vn -0.4461 0.8710 -0.2057
vn 0.8898 0.4564 0.0038
vn -0.4462 0.8710 -0.2057
vn 0.8921 0.4519 0.0048
vn -0.4503 0.8771 -0.1669
vn 0.8892 0.4575 0.0049
vn -0.4504 0.8771 -0.1669
vn -0.4525 0.8805 -0.1409
vn 0.8889 0.4580 0.0049
vn -0.4526 0.8805 -0.1409
vn 0.8916 0.4527 0.0054
vn -0.4542 0.8826 -0.1210
vn 0.8886 0.4586 0.0053
vn -0.4543 0.8826 -0.1210
vn -0.4559 0.8846 -0.0983
vn 0.8886 0.4586 0.0055
vn 0.8922 0.4516 0.0061
vn -0.4572 0.8863 -0.0731
vn 0.8884 0.4590 0.0060
vn -0.4573 0.8863 -0.0730
vn -0.4580 0.8871 -0.0571
vn 0.8883 0.4591 0.0066
vn -0.4597 0.8869 -0.0446
vn 0.8880 0.4598 0.0075
vn -0.4598 0.8869 -0.0444
vn 0.8906 0.4547 0.0082
vn -0.4617 0.8866 -0.0279
vn 0.8867 0.4622 0.0098
vn -0.4618 0.8865 -0.0279
vn -0.4632 0.8862 -0.0090
vn 0.8872 0.4612 0.0116
vn -0.4632 0.8862 -0.0088
vn -0.4623 0.8867 0.0076
vn 0.8854 0.4648 0.0084
vn -0.4624 0.8866 0.0076
vn -0.4608 0.8861 0.0499
vn 0.8905 0.4549 0.0092
vn -0.4609 0.8861 0.0499
vn 0.8877 0.4604 0.0007
vn -0.4544 0.8700 0.1916
vn -0.0437 0.0597 0.9973
vn 0.8869 0.4618 0.0114
vn -0.0437 0.0596 0.9973
vn -0.2113 0.3837 0.8990
vn -0.4545 0.8699 0.1915
vn -0.4553 0.8697 0.1907
vn 0.8887 0.4583 0.0086
vn -0.2114 0.3835 0.8990
vn -0.8976 -0.4405 -0.0184
vn -0.8942 -0.4458 -0.0399
vn -0.9245 -0.3761 -0.0621
vn -0.9055 -0.4243 -0.0071
vn -0.8992 -0.4374 -0.0089
vn -0.9073 -0.4204 -0.0090
vn -0.9247 -0.3806 -0.0018
vn -0.9109 -0.4120 -0.0222
vn -0.9079 -0.4191 -0.0064
vn -0.9107 -0.4128 -0.0136
vn -0.9196 -0.3928 -0.0022
vn -0.9131 -0.4078 -0.0080
vn -0.9194 -0.3933 -0.0083
vn -0.9285 -0.3714 0.0022
vn -0.9327 -0.3601 -0.0199
vn -0.9391 -0.3437 -0.0032
vn -0.9387 -0.3446 0.0001
vn -0.9334 -0.3580 -0.0236
vn -0.9355 -0.3531 -0.0132
vn -0.9388 -0.3443 -0.0066
vn -0.9425 -0.3342 -0.0045
vn -0.9460 -0.3241 -0.0048
vn -0.9461 -0.3240 -0.0010
vn -0.9466 -0.3224 -0.0033
vn -0.9457 -0.3251 -0.0021
vn -0.9461 -0.3239 -0.0013
vn -0.9483 -0.3173 -0.0013
vn -0.9490 -0.3152 -0.0010
vn -0.9493 -0.3143 -0.0009
vn -0.9493 -0.3143 -0.0012
vn -0.8877 -0.4604 -0.0007
vn -0.8868 -0.4619 -0.0116
vn -0.8886 -0.4586 -0.0090
vn -0.8908 -0.4544 -0.0086
vn -0.8854 -0.4648 -0.0085
vn -0.8929 -0.4502 -0.0077
vn -0.8872 -0.4612 -0.0116
vn -0.8867 -0.4622 -0.0098
vn -0.8968 -0.4423 -0.0087
vn -0.8881 -0.4595 -0.0072
vn -0.9055 -0.4243 -0.0056
vn -0.9077 -0.4196 -0.0047
vn -0.8946 -0.4469 -0.0060
vn -0.8883 -0.4591 -0.0066
vn -0.8884 -0.4590 -0.0060
vn -0.8886 -0.4586 -0.0055
vn -0.8939 -0.4481 -0.0057
vn -0.8887 -0.4586 -0.0053
vn -0.8889 -0.4580 -0.0049
vn -0.9071 -0.4210 -0.0055
vn -0.8942 -0.4477 -0.0057
vn -0.8892 -0.4575 -0.0049
vn -0.8898 -0.4564 -0.0043
vn -0.8965 -0.4430 -0.0038
vn -0.8905 -0.4550 -0.0054
vn -0.8905 -0.4550 -0.0048
vn -0.8939 -0.4483 0.0012
vn -0.8873 -0.4612 -0.0005
vn -0.9396 -0.3344 -0.0735
vn -0.8943 -0.4473 0.0108
vn -0.9022 -0.4314 -0.0017
vn -0.9076 -0.4198 -0.0023
vn -0.9166 -0.3998 -0.0030
vn -0.9232 -0.3843 -0.0053
vn -0.9284 -0.3715 -0.0014
vn -0.9372 -0.3488 -0.0028
vn -0.9240 -0.3824 -0.0042
vn -0.9183 -0.3959 -0.0044
vn -0.9318 -0.3630 -0.0041
vn -0.9399 -0.3415 -0.0046
vn -0.9458 -0.3248 -0.0009
vn -0.9465 -0.3228 -0.0016
vn -0.9480 -0.3184 -0.0037
vn -0.9409 -0.3385 -0.0044
vn -0.9392 -0.3434 -0.0043
vn -0.9490 -0.3151 -0.0046
vn -0.9483 -0.3174 -0.0061
vn -0.9526 -0.3042 -0.0070
vt 0.564453 0.036621
vt 0.567383 0.051270
vt 0.565430 0.051270
vt 0.565918 0.036621
vt 0.567383 0.069336
vt 0.644531 0.037598
vt 0.565918 0.035156
vt 0.644531 0.036133
vt 0.568848 0.069336
vt 0.696289 0.038574
vt 0.696777 0.037109
vt 0.698242 0.039551
vt 0.696777 0.040039
vt 0.697754 0.043457
vt 0.696289 0.042969
vt 0.694336 0.047852
vt 0.695801 0.048340
vt 0.691406 0.052734
vt 0.692871 0.053223
vt 0.645508 0.051758
vt 0.687988 0.058105
vt 0.688965 0.059082
vt 0.682129 0.064941
vt 0.683594 0.065918
vt 0.647461 0.067871
vt 0.673340 0.075684
vt 0.674316 0.077148
vt 0.666016 0.084473
vt 0.666992 0.085449
vt 0.570312 0.086914
vt 0.568359 0.086914
vt 0.569824 0.104004
vt 0.648926 0.083496
vt 0.658203 0.092285
vt 0.659180 0.093750
vt 0.649902 0.100098
vt 0.650879 0.101562
vt 0.627930 0.102539
vt 0.639648 0.109863
vt 0.641113 0.110840
vt 0.571777 0.104004
vt 0.629395 0.118652
vt 0.630371 0.120117
vt 0.573242 0.124512
vt 0.571777 0.124512
vt 0.573242 0.142578
vt 0.600586 0.123535
vt 0.574707 0.142578
vt 0.619629 0.126953
vt 0.620605 0.128418
vt 0.609375 0.135254
vt 0.610352 0.136719
vt 0.598633 0.143066
vt 0.599609 0.144043
vt 0.589355 0.149414
vt 0.589844 0.150879
vt 0.580566 0.154785
vt 0.581055 0.156250
vt 0.576172 0.155762
vt 0.574707 0.156738
vt 0.576660 0.156250
vt 0.576172 0.157715
vt 0.552734 0.032715
vt 0.557617 0.048340
vt 0.556152 0.048828
vt 0.560059 0.066406
vt 0.552246 0.034180
vt 0.486816 0.032715
vt 0.558105 0.066406
vt 0.486816 0.034668
vt 0.409912 0.033203
vt 0.487793 0.050293
vt 0.409912 0.034668
vt 0.361328 0.031250
vt 0.411621 0.050781
vt 0.362061 0.032715
vt 0.359131 0.048828
vt 0.360840 0.049316
vt 0.360352 0.069336
vt 0.361816 0.069336
vt 0.413574 0.069824
vt 0.363525 0.088379
vt 0.361816 0.088379
vt 0.363770 0.107910
vt 0.489258 0.068848
vt 0.415039 0.088379
vt 0.365234 0.107910
vt 0.367188 0.127930
vt 0.365479 0.128418
vt 0.416748 0.107910
vt 0.490723 0.086914
vt 0.368896 0.148926
vt 0.367432 0.148926
vt 0.369141 0.170410
vt 0.418213 0.127441
vt 0.492188 0.105957
vt 0.560059 0.084961
vt 0.561523 0.084473
vt 0.563477 0.102539
vt 0.561523 0.102539
vt 0.493652 0.125000
vt 0.563477 0.122559
vt 0.564941 0.122559
vt 0.566406 0.141113
vt 0.419922 0.147461
vt 0.494873 0.144531
vt 0.564941 0.141113
vt 0.565918 0.159180
vt 0.567383 0.159180
vt 0.566895 0.161133
vt 0.542480 0.155762
vt 0.565430 0.160645
vt 0.564453 0.161133
vt 0.565918 0.162598
vt 0.558594 0.164551
vt 0.559570 0.166016
vt 0.549316 0.168945
vt 0.550293 0.170410
vt 0.540527 0.172363
vt 0.541016 0.174316
vt 0.530762 0.175293
vt 0.531250 0.176758
vt 0.517578 0.163086
vt 0.520020 0.177734
vt 0.520020 0.179688
vt 0.508789 0.180176
vt 0.508789 0.181641
vt 0.496582 0.166504
vt 0.498047 0.182129
vt 0.498291 0.183594
vt 0.486816 0.183594
vt 0.487061 0.185547
vt 0.465820 0.168457
vt 0.475586 0.185059
vt 0.475830 0.186523
vt 0.461426 0.186523
vt 0.461426 0.187988
vt 0.446045 0.187988
vt 0.446045 0.189453
vt 0.421387 0.169434
vt 0.427002 0.189453
vt 0.427246 0.190918
vt 0.408203 0.190430
vt 0.408203 0.191895
vt 0.385742 0.190918
vt 0.385742 0.192871
vt 0.374023 0.191895
vt 0.370850 0.170410
vt 0.374512 0.190430
vt 0.371826 0.190918
vt 0.372070 0.188965
vt 0.370605 0.189453
vt 0.372803 0.189941
vt 0.614258 0.112793
vt 0.646973 0.063965
vt 0.418945 0.137207
vt 0.465820 0.168457
vt 0.494141 0.134766
vt 0.491455 0.096680
vt 0.415771 0.098145
vt 0.361816 0.088379
vt 0.488525 0.059570
vt 0.486816 0.032715
vt 0.412598 0.060059
s 1
usemtl e50:MI_Glass1
f 1/1/1 2/2/2 3/3/3
f 2/2/4 1/1/5 4/4/5
f 5/5/6 3/3/3 2/2/2
f 4/4/7 6/6/8 2/2/9
f 1/7/10 6/6/11 4/4/10
f 1/7/10 7/8/11 6/6/11
f 5/5/6 2/2/2 8/9/6
f 7/8/11 9/10/12 6/6/11
f 7/8/11 10/11/12 9/10/12
f 11/12/13 9/10/13 10/11/13
f 9/10/14 11/12/14 12/13/14
f 13/14/15 12/13/16 11/12/17
f 14/15/18 9/10/19 12/13/20
f 12/13/16 13/14/15 14/15/21
f 9/10/19 14/15/18 6/6/8
f 15/16/22 14/15/21 13/14/15
f 14/15/18 15/16/23 6/6/8
f 13/14/15 16/17/24 15/16/22
f 16/17/24 17/18/25 15/16/22
f 17/18/26 6/6/8 15/16/23
f 16/17/24 18/19/27 17/18/25
f 19/20/28 2/2/9 6/6/8
f 6/6/8 17/18/26 19/20/28
f 19/20/28 8/9/29 2/2/9
f 18/19/27 20/21/30 17/18/25
f 17/18/26 20/21/31 19/20/28
f 18/19/27 21/22/32 20/21/30
f 21/22/32 22/23/33 20/21/30
f 22/23/34 19/20/28 20/21/31
f 21/22/32 23/24/35 22/23/33
f 8/9/29 19/20/28 24/25/36
f 19/20/28 22/23/34 24/25/36
f 23/24/35 25/26/37 22/23/33
f 22/23/34 25/26/38 24/25/36
f 23/24/35 26/27/39 25/26/37
f 26/27/39 27/28/40 25/26/37
f 27/28/41 24/25/36 25/26/38
f 26/27/39 28/29/42 27/28/40
f 8/9/29 24/25/36 29/30/43
f 29/30/44 5/5/6 8/9/6
f 5/5/6 29/30/44 30/31/45
f 31/32/46 30/31/45 29/30/44
f 24/25/36 27/28/41 32/33/47
f 32/33/47 29/30/43 24/25/36
f 28/29/42 33/34/48 27/28/40
f 27/28/41 33/34/49 32/33/47
f 28/29/42 34/35/50 33/34/48
f 35/36/51 33/34/48 34/35/50
f 33/34/49 35/36/52 32/33/47
f 34/35/50 36/37/53 35/36/51
f 37/38/54 29/30/43 32/33/47
f 35/36/52 37/38/54 32/33/47
f 38/39/55 35/36/51 36/37/53
f 37/38/54 35/36/52 38/39/56
f 36/37/53 39/40/57 38/39/55
f 37/38/54 40/41/58 29/30/43
f 31/32/46 29/30/44 40/41/46
f 41/42/59 38/39/55 39/40/57
f 37/38/54 38/39/56 41/42/60
f 39/40/57 42/43/61 41/42/59
f 43/44/62 31/32/46 40/41/46
f 31/32/46 43/44/62 44/45/63
f 45/46/64 44/45/63 43/44/62
f 40/41/58 37/38/54 46/47/65
f 46/47/65 43/44/66 40/41/58
f 46/47/65 37/38/54 41/42/60
f 45/46/64 43/44/62 47/48/67
f 43/44/66 46/47/65 47/48/68
f 48/49/69 41/42/59 42/43/61
f 46/47/65 41/42/60 48/49/70
f 42/43/61 49/50/71 48/49/69
f 50/51/72 48/49/69 49/50/71
f 46/47/65 48/49/70 50/51/73
f 49/50/71 51/52/74 50/51/72
f 50/51/73 52/53/75 46/47/65
f 52/53/76 50/51/72 51/52/74
f 47/48/68 46/47/65 52/53/75
f 51/52/74 53/54/77 52/53/76
f 54/55/78 52/53/76 53/54/77
f 52/53/75 54/55/79 47/48/68
f 53/54/77 55/56/80 54/55/78
f 56/57/81 54/55/78 55/56/80
f 54/55/79 56/57/82 47/48/68
f 55/56/80 57/58/83 56/57/81
f 58/59/84 47/48/68 56/57/82
f 58/59/85 45/46/64 47/48/67
f 45/46/64 58/59/85 59/60/86
f 60/61/87 56/57/81 57/58/83
f 58/59/84 56/57/82 60/61/88
f 60/61/89 59/60/89 58/59/89
f 60/61/87 57/58/83 61/62/90
f 59/60/91 60/61/91 61/62/91
f 62/63/92 63/64/93 64/65/93
f 65/66/94 64/65/93 63/64/93
f 62/63/92 64/65/93 66/67/92
f 67/68/95 62/63/96 66/67/96
f 64/65/93 65/66/94 68/69/94
f 67/68/95 66/67/96 69/70/97
f 70/71/98 67/68/95 69/70/97
f 71/72/99 66/67/100 64/65/101
f 66/67/100 71/72/99 69/70/102
f 70/71/98 69/70/97 72/73/103
f 73/74/104 70/71/98 72/73/103
f 71/72/99 74/75/105 69/70/102
f 72/73/106 69/70/102 74/75/105
f 73/74/104 72/73/103 75/76/107
f 76/77/108 73/74/109 75/76/110
f 75/76/111 72/73/106 77/78/112
f 76/77/108 75/76/110 77/78/113
f 74/75/105 77/78/112 72/73/106
f 78/79/114 76/77/108 77/78/113
f 74/75/105 79/80/115 77/78/112
f 78/79/114 77/78/113 79/80/116
f 79/80/115 74/75/105 80/81/117
f 71/72/99 80/81/117 74/75/105
f 81/82/118 78/79/114 79/80/116
f 79/80/115 80/81/117 81/82/119
f 78/79/114 81/82/118 82/83/118
f 83/84/120 82/83/118 81/82/118
f 80/81/117 71/72/99 84/85/121
f 64/65/101 84/85/121 71/72/99
f 84/85/121 64/65/101 68/69/122
f 85/86/123 81/82/119 80/81/117
f 80/81/117 84/85/121 85/86/123
f 83/84/120 81/82/118 86/87/124
f 85/86/123 86/87/125 81/82/119
f 87/88/126 83/84/120 86/87/124
f 83/84/120 87/88/126 88/89/127
f 86/87/125 85/86/123 89/90/128
f 86/87/125 89/90/128 87/88/129
f 90/91/130 85/86/123 84/85/121
f 85/86/123 90/91/130 89/90/128
f 84/85/121 68/69/122 90/91/130
f 91/92/131 88/89/127 87/88/126
f 88/89/127 91/92/131 92/93/131
f 93/94/132 92/93/131 91/92/131
f 94/95/133 87/88/129 89/90/128
f 87/88/129 94/95/133 91/92/134
f 95/96/135 89/90/128 90/91/130
f 89/90/128 95/96/135 94/95/133
f 96/97/136 90/91/130 68/69/122
f 96/97/136 95/96/135 90/91/130
f 65/66/94 96/97/137 68/69/94
f 65/66/94 97/98/137 96/97/137
f 98/99/138 96/97/137 97/98/137
f 95/96/135 96/97/136 99/100/139
f 96/97/137 98/99/138 99/100/138
f 95/96/135 99/100/139 100/101/140
f 100/101/140 94/95/133 95/96/135
f 98/99/138 101/102/141 99/100/138
f 101/102/142 100/101/140 99/100/139
f 98/99/138 102/103/143 101/102/141
f 103/104/144 101/102/141 102/103/143
f 100/101/140 104/105/145 94/95/133
f 104/105/145 91/92/134 94/95/133
f 101/102/142 105/106/146 100/101/140
f 104/105/145 100/101/140 105/106/146
f 101/102/141 103/104/144 106/107/144
f 105/106/146 101/102/142 106/107/147
f 103/104/144 107/108/148 106/107/144
f 103/104/144 108/109/149 107/108/148
f 109/110/150 107/108/148 108/109/149
f 106/107/147 107/108/151 110/111/152
f 110/111/152 105/106/146 106/107/147
f 107/108/148 109/110/150 111/112/153
f 110/111/152 107/108/151 111/112/154
f 109/110/150 112/113/155 111/112/153
f 112/113/156 110/111/152 111/112/154
f 113/114/157 112/113/155 109/110/150
f 114/115/158 112/113/155 113/114/157
f 110/111/152 112/113/156 114/115/159
f 114/115/158 113/114/157 115/116/160
f 116/117/161 114/115/158 115/116/160
f 114/115/159 116/117/162 110/111/152
f 115/116/160 117/118/163 116/117/161
f 118/119/164 116/117/161 117/118/163
f 116/117/162 118/119/165 110/111/152
f 118/119/164 117/118/163 119/120/166
f 120/121/167 118/119/164 119/120/166
f 120/121/168 110/111/152 118/119/165
f 120/121/167 119/120/166 121/122/169
f 110/111/152 120/121/168 122/123/170
f 105/106/146 110/111/152 122/123/170
f 123/124/171 120/121/167 121/122/169
f 120/121/168 123/124/172 122/123/170
f 123/124/171 121/122/169 124/125/173
f 125/126/174 123/124/171 124/125/173
f 123/124/172 125/126/175 122/123/170
f 125/126/174 124/125/173 126/127/176
f 122/123/170 127/128/177 105/106/146
f 125/126/175 127/128/177 122/123/170
f 128/129/178 125/126/174 126/127/176
f 127/128/177 125/126/175 128/129/179
f 128/129/178 126/127/176 129/130/180
f 130/131/181 128/129/178 129/130/180
f 128/129/179 130/131/182 127/128/177
f 130/131/181 129/130/180 131/132/181
f 127/128/177 132/133/183 105/106/146
f 130/131/182 132/133/183 127/128/177
f 104/105/145 105/106/146 132/133/183
f 133/134/184 130/131/181 131/132/181
f 133/134/185 132/133/183 130/131/182
f 133/134/184 131/132/181 134/135/186
f 135/136/187 133/134/184 134/135/186
f 133/134/185 135/136/188 132/133/183
f 135/136/187 134/135/186 136/137/187
f 137/138/189 135/136/187 136/137/187
f 137/138/190 132/133/183 135/136/188
f 137/138/189 136/137/187 138/139/191
f 132/133/183 137/138/190 139/140/192
f 132/133/183 139/140/192 104/105/145
f 140/141/193 137/138/189 138/139/191
f 137/138/190 140/141/194 139/140/192
f 140/141/193 138/139/191 141/142/195
f 142/143/196 140/141/193 141/142/195
f 140/141/194 142/143/197 139/140/192
f 142/143/196 141/142/195 143/144/198
f 144/145/199 142/143/196 143/144/198
f 144/145/200 139/140/192 142/143/197
f 144/145/199 143/144/198 145/146/201
f 146/147/202 144/145/199 145/146/201
f 139/140/192 147/148/203 104/105/145
f 139/140/192 144/145/200 147/148/203
f 91/92/134 104/105/145 147/148/203
f 93/94/132 91/92/131 147/148/132
f 144/145/199 146/147/202 148/149/204
f 144/145/200 148/149/205 147/148/203
f 149/150/206 148/149/204 146/147/202
f 150/151/207 93/94/132 147/148/132
f 147/148/203 148/149/205 150/151/208
f 93/94/132 150/151/207 151/152/209
f 149/150/210 151/152/209 150/151/207
f 148/149/202 149/150/211 152/153/212
f 150/151/208 148/149/205 152/153/213
f 149/150/210 150/151/207 152/153/214
f 153/58/215 154/60/216 155/62/217
f 156/46/218 154/60/216 153/58/215
f 157/56/219 156/46/218 153/58/215
f 158/54/220 156/46/218 157/56/219
f 159/154/221 156/46/218 158/54/220
f 160/52/222 159/154/221 158/54/220
f 161/45/223 156/46/218 159/154/221
f 159/154/221 160/52/222 162/50/224
f 159/154/221 163/32/225 161/45/223
f 159/154/221 162/50/224 164/43/226
f 159/154/221 164/43/226 165/40/227
f 163/32/225 159/154/221 166/31/228
f 159/154/221 165/40/227 167/37/229
f 168/155/230 166/31/228 159/154/221
f 167/37/229 168/155/230 159/154/221
f 166/31/228 168/155/230 169/5/231
f 170/35/232 168/155/230 167/37/229
f 171/29/233 168/155/230 170/35/232
f 172/27/234 168/155/230 171/29/233
f 173/24/235 168/155/230 172/27/234
f 174/22/236 168/155/230 173/24/235
f 168/155/230 175/3/237 169/5/231
f 176/19/238 168/155/230 174/22/236
f 175/3/237 168/155/230 177/8/239
f 176/19/238 177/8/239 168/155/230
f 175/3/237 177/8/239 178/1/240
f 177/8/239 176/19/238 179/17/241
f 180/14/242 177/8/239 179/17/241
f 180/14/242 181/11/243 177/8/239
f 181/11/243 180/14/242 182/12/244
f 183/147/245 184/152/246 185/150/247
f 186/94/248 184/152/246 183/147/245
f 187/146/249 186/94/248 183/147/245
f 187/146/249 188/140/250 186/94/248
f 188/140/250 187/146/249 189/144/251
f 190/142/252 188/140/250 189/144/251
f 188/140/250 191/93/253 186/94/248
f 192/139/254 188/140/250 190/142/252
f 191/93/253 188/140/250 193/156/255
f 191/93/253 193/156/255 194/89/256
f 192/139/254 195/157/257 188/140/250
f 195/157/257 193/156/255 188/140/250
f 195/157/257 192/139/254 196/137/258
f 197/135/259 195/157/257 196/137/258
f 198/132/260 195/157/257 197/135/259
f 198/132/260 199/128/261 195/157/257
f 200/130/262 199/128/261 198/132/260
f 201/127/263 199/128/261 200/130/262
f 199/128/261 202/158/264 195/157/257
f 202/158/264 193/156/255 195/157/257
f 199/128/261 201/127/263 203/123/265
f 203/123/265 202/158/264 199/128/261
f 204/125/266 203/123/265 201/127/263
f 205/122/267 203/123/265 204/125/266
f 205/122/267 206/111/268 203/123/265
f 206/111/268 202/158/264 203/123/265
f 206/111/268 205/122/267 207/120/269
f 208/118/270 206/111/268 207/120/269
f 209/116/271 206/111/268 208/118/270
f 210/114/272 211/110/273 209/116/271
f 212/109/274 209/116/271 211/110/273
f 213/104/275 209/116/271 212/109/274
f 209/116/271 213/104/275 206/111/268
f 202/158/264 206/111/268 213/104/275
f 214/103/276 202/158/264 213/104/275
f 215/99/277 202/158/264 214/103/276
f 202/158/264 215/99/277 216/159/278
f 193/156/255 202/158/264 216/159/278
f 217/98/279 216/159/278 215/99/277
f 218/66/280 216/159/278 217/98/279
f 193/156/255 216/159/278 219/160/281
f 194/89/256 193/156/255 219/160/281
f 194/89/256 219/160/281 220/84/282
f 219/160/281 221/161/283 220/84/282
f 216/159/278 218/66/280 222/162/284
f 219/160/281 216/159/278 222/162/284
f 222/162/284 218/66/280 223/64/285
f 224/63/286 222/162/284 223/64/285
f 222/162/284 224/63/286 225/163/287
f 221/161/283 219/160/281 226/164/288
f 219/160/281 222/162/284 226/164/288
f 226/164/288 222/162/284 225/163/287
f 221/161/283 226/164/288 227/79/289
f 226/164/288 225/163/287 228/71/290
f 226/164/288 229/77/291 227/79/289
f 229/77/291 226/164/288 228/71/290
f 229/77/291 228/71/290 230/74/292
