# Blender 5.2.0 LTS
# www.blender.org
mtllib RR window.mtl
o RR_window
v -0.006502 0.012626 -0.008147
v -0.006522 0.012596 -0.008268
v -0.006498 0.012640 -0.008174
v -0.006671 0.012287 -0.008124
v -0.006586 0.012469 -0.008510
v -0.006664 0.012315 -0.008773
v -0.007004 0.011588 -0.009223
v -0.006753 0.012134 -0.009064
v -0.006881 0.011836 -0.008097
v -0.006844 0.011945 -0.009351
v -0.007109 0.011335 -0.008068
v -0.006936 0.011747 -0.009631
v -0.007035 0.011531 -0.009919
v -0.007285 0.010900 -0.008044
v -0.007134 0.011304 -0.010199
v -0.007488 0.010380 -0.010148
v -0.007460 0.010458 -0.008019
v -0.007213 0.011115 -0.010426
v -0.007293 0.010916 -0.010644
v -0.007372 0.010709 -0.010854
v -0.007472 0.010439 -0.011106
v -0.007534 0.010263 -0.011261
v -0.007619 0.009993 -0.007993
v -0.007580 0.010129 -0.011369
v -0.007719 0.009708 -0.010111
v -0.007749 0.009612 -0.007971
v -0.007621 0.010006 -0.011451
v -0.007659 0.009892 -0.011515
v -0.007699 0.009771 -0.011528
v -0.007684 0.009817 -0.011546
v -0.006132 0.013274 -0.002631
v -0.006111 0.013315 -0.002696
v -0.006115 0.013306 -0.002648
v -0.006370 0.012816 -0.002608
v -0.006107 0.013322 -0.002998
v -0.006373 0.012837 -0.003979
v -0.006115 0.013324 -0.003605
v -0.006123 0.013319 -0.004117
v -0.006634 0.012288 -0.002582
v -0.006137 0.013304 -0.004628
v -0.006764 0.012048 -0.003947
v -0.006878 0.011785 -0.002552
v -0.006377 0.012848 -0.005183
v -0.006149 0.013286 -0.005045
v -0.006162 0.013266 -0.005428
v -0.006176 0.013243 -0.005734
v -0.006389 0.012834 -0.006018
v -0.006193 0.013214 -0.006040
v -0.006212 0.013180 -0.006331
v -0.006770 0.012063 -0.005988
v -0.006421 0.012777 -0.006589
v -0.006235 0.013140 -0.006633
v -0.006261 0.013091 -0.006934
v -0.006495 0.012637 -0.007280
v -0.006291 0.013036 -0.007196
v -0.006329 0.012964 -0.007451
v -0.006380 0.012867 -0.007712
v -0.006418 0.012794 -0.007889
v -0.006429 0.012772 -0.007910
v -0.006442 0.012739 -0.007920
v -0.006662 0.012302 -0.007900
v -0.006875 0.011847 -0.007876
v -0.007102 0.011351 -0.007848
v -0.007196 0.011113 -0.005952
v -0.007281 0.010908 -0.007823
v -0.007461 0.010454 -0.007799
v -0.007201 0.011075 -0.003897
v -0.007106 0.011281 -0.002522
v -0.007302 0.010798 -0.002494
v -0.007556 0.010171 -0.005916
v -0.007619 0.009993 -0.007773
v -0.007752 0.009604 -0.007751
v -0.007772 0.009529 -0.005892
v -0.007569 0.010107 -0.003844
v -0.007486 0.010315 -0.002465
v -0.007789 0.009443 -0.003798
v -0.007661 0.009812 -0.002436
v -0.007797 0.009386 -0.002410
v -0.007749 0.009612 -0.007971
v -0.007619 0.009993 -0.007993
v -0.007660 0.010007 -0.007993
v -0.007790 0.009626 -0.007971
v -0.007460 0.010458 -0.008019
v -0.007760 0.009722 -0.010111
v -0.007719 0.009708 -0.010111
v -0.007500 0.010473 -0.008019
v -0.007741 0.009785 -0.011528
v -0.007699 0.009771 -0.011528
v -0.007684 0.009817 -0.011546
v -0.007725 0.009831 -0.011546
v -0.007659 0.009892 -0.011515
v -0.007700 0.009906 -0.011514
v -0.007662 0.010020 -0.011451
v -0.007621 0.010006 -0.011451
v -0.007621 0.010143 -0.011369
v -0.007580 0.010129 -0.011369
v -0.007638 0.010090 -0.010124
v -0.007575 0.010278 -0.011261
v -0.007534 0.010263 -0.011261
v -0.007513 0.010453 -0.011106
v -0.007472 0.010439 -0.011106
v -0.007495 0.010498 -0.010153
v -0.007413 0.010724 -0.010854
v -0.007372 0.010709 -0.010854
v -0.007333 0.010932 -0.010644
v -0.007293 0.010916 -0.010644
v -0.007326 0.010916 -0.008044
v -0.007285 0.010900 -0.008044
v -0.007109 0.011335 -0.008068
v -0.007345 0.010899 -0.010189
v -0.007253 0.011131 -0.010425
v -0.007213 0.011115 -0.010426
v -0.007174 0.011321 -0.010199
v -0.007134 0.011304 -0.010199
v -0.007156 0.011356 -0.009605
v -0.007074 0.011548 -0.009918
v -0.007035 0.011531 -0.009919
v -0.007149 0.011352 -0.008068
v -0.006976 0.011765 -0.009630
v -0.006936 0.011747 -0.009631
v -0.006930 0.011856 -0.008841
v -0.006921 0.011854 -0.008097
v -0.006881 0.011836 -0.008097
v -0.006671 0.012287 -0.008124
v -0.006883 0.011963 -0.009350
v -0.006844 0.011945 -0.009351
v -0.006792 0.012153 -0.009064
v -0.006753 0.012134 -0.009064
v -0.006703 0.012334 -0.008773
v -0.006664 0.012315 -0.008773
v -0.006710 0.012306 -0.008123
v -0.006625 0.012488 -0.008510
v -0.006586 0.012469 -0.008510
v -0.006541 0.012645 -0.008145
v -0.006502 0.012626 -0.008147
v -0.006561 0.012615 -0.008267
v -0.006522 0.012596 -0.008268
v -0.006537 0.012659 -0.008173
v -0.006498 0.012640 -0.008174
v -0.007752 0.009604 -0.007751
v -0.007660 0.010007 -0.007773
v -0.007619 0.009993 -0.007773
v -0.007461 0.010454 -0.007799
v -0.007794 0.009618 -0.007751
v -0.007772 0.009529 -0.005892
v -0.007501 0.010468 -0.007798
v -0.007813 0.009542 -0.005891
v -0.007789 0.009443 -0.003798
v -0.007681 0.009945 -0.005907
v -0.007831 0.009457 -0.003798
v -0.007797 0.009386 -0.002410
v -0.007695 0.009874 -0.003827
v -0.007839 0.009399 -0.002410
v -0.007661 0.009812 -0.002436
v -0.007703 0.009826 -0.002435
v -0.007486 0.010315 -0.002465
v -0.007527 0.010330 -0.002465
v -0.007524 0.010367 -0.003861
v -0.007343 0.010814 -0.002493
v -0.007302 0.010798 -0.002494
v -0.007106 0.011281 -0.002522
v -0.007513 0.010426 -0.005925
v -0.007343 0.010846 -0.003884
v -0.007145 0.011298 -0.002522
v -0.006918 0.011803 -0.002551
v -0.006878 0.011785 -0.002552
v -0.007139 0.011337 -0.003909
v -0.007337 0.010889 -0.005943
v -0.006921 0.011821 -0.003935
v -0.007321 0.010925 -0.007823
v -0.007281 0.010908 -0.007823
v -0.007102 0.011351 -0.007848
v -0.007136 0.011371 -0.005961
v -0.007141 0.011368 -0.007848
v -0.006915 0.011865 -0.007875
v -0.006875 0.011847 -0.007876
v -0.006923 0.011845 -0.005979
v -0.006662 0.012302 -0.007900
v -0.006686 0.012313 -0.003958
v -0.006701 0.012321 -0.007900
v -0.006696 0.012318 -0.005997
v -0.006481 0.012758 -0.007920
v -0.006442 0.012739 -0.007920
v -0.006429 0.012772 -0.007910
v -0.006468 0.012792 -0.007910
v -0.006457 0.012814 -0.007889
v -0.006418 0.012794 -0.007889
v -0.006419 0.012886 -0.007712
v -0.006380 0.012867 -0.007712
v -0.006534 0.012657 -0.007280
v -0.006368 0.012984 -0.007451
v -0.006329 0.012964 -0.007451
v -0.006329 0.013056 -0.007195
v -0.006291 0.013036 -0.007196
v -0.006300 0.013110 -0.006934
v -0.006261 0.013091 -0.006934
v -0.006459 0.012797 -0.006589
v -0.006273 0.013160 -0.006633
v -0.006235 0.013140 -0.006633
v -0.006251 0.013200 -0.006331
v -0.006212 0.013180 -0.006331
v -0.006427 0.012854 -0.006018
v -0.006232 0.013233 -0.006039
v -0.006193 0.013214 -0.006040
v -0.006215 0.013263 -0.005734
v -0.006176 0.013243 -0.005734
v -0.006415 0.012867 -0.005183
v -0.006201 0.013286 -0.005427
v -0.006162 0.013266 -0.005428
v -0.006188 0.013306 -0.005044
v -0.006149 0.013286 -0.005045
v -0.006175 0.013324 -0.004628
v -0.006137 0.013304 -0.004628
v -0.006411 0.012857 -0.003979
v -0.006162 0.013339 -0.004116
v -0.006123 0.013319 -0.004117
v -0.006153 0.013345 -0.003604
v -0.006115 0.013324 -0.003605
v -0.006146 0.013342 -0.002998
v -0.006107 0.013322 -0.002998
v -0.006111 0.013315 -0.002696
v -0.006409 0.012835 -0.002607
v -0.006150 0.013335 -0.002696
v -0.006115 0.013306 -0.002648
v -0.006673 0.012308 -0.002581
v -0.006634 0.012288 -0.002582
v -0.006370 0.012816 -0.002608
v -0.006170 0.013294 -0.002630
v -0.006132 0.013274 -0.002631
v -0.006154 0.013326 -0.002648
vn 0.8942 -0.4458 -0.0400
vn 0.8976 -0.4404 -0.0184
vn 0.9246 -0.3758 -0.0623
vn 0.9055 -0.4243 -0.0071
vn 0.8992 -0.4374 -0.0089
vn 0.9073 -0.4204 -0.0091
vn 0.9247 -0.3806 -0.0018
vn 0.9109 -0.4120 -0.0222
vn 0.9079 -0.4191 -0.0064
vn 0.9107 -0.4128 -0.0136
vn 0.9196 -0.3928 -0.0022
vn 0.9131 -0.4078 -0.0080
vn 0.9193 -0.3935 -0.0082
vn 0.9286 -0.3712 0.0020
vn 0.9327 -0.3600 -0.0199
vn 0.9391 -0.3437 -0.0032
vn 0.9387 -0.3447 0.0001
vn 0.9334 -0.3580 -0.0236
vn 0.9355 -0.3531 -0.0132
vn 0.9388 -0.3444 -0.0067
vn 0.9425 -0.3341 -0.0045
vn 0.9461 -0.3237 -0.0049
vn 0.9461 -0.3240 -0.0010
vn 0.9466 -0.3224 -0.0033
vn 0.9457 -0.3251 -0.0021
vn 0.9461 -0.3239 -0.0013
vn 0.9483 -0.3174 -0.0013
vn 0.9490 -0.3152 -0.0010
vn 0.9493 -0.3143 -0.0009
vn 0.9493 -0.3143 -0.0012
vn 0.8869 -0.4619 -0.0115
vn 0.8877 -0.4605 -0.0006
vn 0.8885 -0.4588 -0.0090
vn 0.8908 -0.4544 -0.0086
vn 0.8853 -0.4649 -0.0084
vn 0.8929 -0.4502 -0.0077
vn 0.8872 -0.4612 -0.0116
vn 0.8867 -0.4622 -0.0098
vn 0.8967 -0.4426 -0.0086
vn 0.8880 -0.4598 -0.0075
vn 0.9055 -0.4243 -0.0056
vn 0.9077 -0.4196 -0.0047
vn 0.8945 -0.4469 -0.0060
vn 0.8884 -0.4591 -0.0066
vn 0.8884 -0.4590 -0.0060
vn 0.8886 -0.4586 -0.0055
vn 0.8939 -0.4481 -0.0057
vn 0.8886 -0.4586 -0.0053
vn 0.8889 -0.4580 -0.0049
vn 0.9070 -0.4210 -0.0055
vn 0.8942 -0.4477 -0.0057
vn 0.8892 -0.4575 -0.0049
vn 0.8898 -0.4564 -0.0043
vn 0.8965 -0.4430 -0.0038
vn 0.8905 -0.4550 -0.0054
vn 0.8905 -0.4550 -0.0048
vn 0.8939 -0.4483 0.0012
vn 0.8873 -0.4612 -0.0005
vn 0.9395 -0.3345 -0.0735
vn 0.8943 -0.4473 0.0108
vn 0.9022 -0.4314 -0.0018
vn 0.9078 -0.4195 -0.0023
vn 0.9166 -0.3998 -0.0031
vn 0.9232 -0.3843 -0.0053
vn 0.9284 -0.3715 -0.0014
vn 0.9372 -0.3488 -0.0028
vn 0.9241 -0.3821 -0.0044
vn 0.9180 -0.3965 -0.0043
vn 0.9318 -0.3630 -0.0041
vn 0.9399 -0.3414 -0.0046
vn 0.9458 -0.3248 -0.0009
vn 0.9464 -0.3229 -0.0016
vn 0.9480 -0.3184 -0.0037
vn 0.9409 -0.3385 -0.0044
vn 0.9392 -0.3434 -0.0043
vn 0.9490 -0.3153 -0.0046
vn 0.9483 -0.3174 -0.0061
vn 0.9526 -0.3042 -0.0070
vn 0.0190 0.0498 0.9986
vn 0.0192 0.0498 0.9986
vn 0.0193 0.0498 0.9986
vn 0.0209 0.0483 0.9986
vn -0.9463 0.3234 0.0022
vn -0.9488 0.3158 0.0016
vn -0.9461 0.3239 0.0013
vn -0.3167 -0.9474 -0.0468
vn -0.3192 -0.9465 -0.0467
vn -0.3191 -0.9466 -0.0468
vn -0.3166 -0.9474 -0.0467
vn -0.3142 -0.9482 -0.0468
vn -0.1056 -0.3165 -0.9427
vn -0.1056 -0.3166 -0.9427
vn -0.1057 -0.3164 -0.9427
vn -0.1055 -0.3167 -0.9426
vn 0.1142 0.3471 -0.9308
vn 0.1343 0.4070 -0.9035
vn -0.9493 0.3142 0.0010
vn -0.9490 0.3152 0.0010
vn -0.9494 0.3142 0.0014
vn 0.1587 0.4785 -0.8636
vn -0.9483 0.3174 0.0013
vn 0.1591 0.4786 -0.8635
vn 0.1826 0.5420 -0.8203
vn -0.9476 0.3195 0.0012
vn 0.1832 0.5419 -0.8202
vn -0.9464 0.3229 0.0019
vn -0.9386 0.3449 0.0024
vn 0.2034 0.5902 -0.7813
vn -0.9449 0.3274 0.0013
vn 0.2041 0.5900 -0.7812
vn 0.2187 0.6139 -0.7585
vn -0.9423 0.3347 0.0018
vn 0.2192 0.6137 -0.7585
vn -0.9398 0.3417 0.0027
vn 0.2320 0.6291 -0.7419
vn -0.9377 0.3476 0.0024
vn 0.2326 0.6290 -0.7418
vn 0.2502 0.6540 -0.7140
vn -0.9345 0.3560 0.0038
vn 0.2508 0.6538 -0.7139
vn -0.9292 0.3696 0.0037
vn 0.0234 0.0466 0.9986
vn 0.0234 0.0467 0.9986
vn 0.0263 0.0453 0.9986
vn -0.9326 0.3608 0.0049
vn 0.2662 0.6776 -0.6856
vn -0.9280 0.3724 0.0072
vn 0.2670 0.6773 -0.6855
vn 0.2831 0.6896 -0.6666
vn -0.9253 0.3791 0.0053
vn 0.2839 0.6892 -0.6666
vn -0.9234 0.3838 0.0053
vn 0.3008 0.6981 -0.6498
vn -0.9167 0.3996 0.0053
vn 0.3015 0.6978 -0.6497
vn -0.9207 0.3901 0.0067
vn 0.3171 0.7123 -0.6261
vn -0.9141 0.4054 0.0064
vn 0.3178 0.7121 -0.6260
vn -0.9113 0.4116 0.0072
vn 0.0318 0.0444 0.9985
vn -0.9081 0.4186 0.0127
vn 0.0315 0.0446 0.9985
vn 0.0478 0.0380 0.9981
vn 0.3335 0.7244 -0.6033
vn -0.9073 0.4204 0.0047
vn 0.3340 0.7243 -0.6032
vn 0.3440 0.7379 -0.5807
vn -0.9040 0.4274 0.0085
vn 0.3442 0.7378 -0.5806
vn 0.3544 0.7491 -0.5596
vn -0.9028 0.4300 0.0090
vn 0.3547 0.7489 -0.5598
vn -0.9036 0.4283 0.0114
vn 0.0477 0.0379 0.9981
vn 0.3672 0.7659 -0.5278
vn -0.8992 0.4374 0.0090
vn 0.0609 0.0344 0.9976
vn 0.0619 0.0340 0.9975
vn -0.8976 0.4404 0.0185
vn 0.3722 0.7845 -0.4960
vn -0.8943 0.4458 0.0399
vn 0.3715 0.7847 -0.4962
vn 0.4100 0.7836 0.4668
vn 0.4099 0.7836 0.4668
vn 0.4098 0.7836 0.4669
vn -0.9248 0.3754 0.0623
vn 0.3750 0.7964 -0.4744
vn 0.4100 0.7836 0.4667
vn 0.3740 0.7967 -0.4748
vn -0.0180 -0.0492 -0.9986
vn -0.0180 -0.0491 -0.9986
vn -0.0186 -0.0480 -0.9987
vn -0.0179 -0.0492 -0.9986
vn -0.3138 -0.9486 -0.0416
vn -0.3175 -0.9473 -0.0417
vn -0.3176 -0.9473 -0.0417
vn -0.3081 -0.9505 -0.0413
vn -0.9464 0.3229 0.0004
vn -0.9466 0.3223 0.0028
vn -0.9456 0.3253 0.0008
vn -0.9504 0.3110 0.0035
vn -0.3080 -0.9505 -0.0413
vn -0.3064 -0.9510 -0.0411
vn -0.9477 0.3192 0.0054
vn -0.9514 0.3080 0.0054
vn -0.3063 -0.9510 -0.0411
vn 0.0241 0.0509 0.9984
vn 0.0232 0.0515 0.9984
vn 0.0231 0.0515 0.9984
vn -0.9482 0.3177 0.0066
vn -0.9526 0.3042 0.0070
vn 0.0241 0.0508 0.9984
vn 0.0258 0.0492 0.9985
vn -0.9397 0.3419 0.0071
vn -0.9399 0.3415 0.0061
vn 0.0273 0.0477 0.9985
vn -0.9305 0.3661 0.0082
vn 0.0284 0.0465 0.9985
vn -0.9393 0.3431 0.0029
vn -0.9381 0.3463 0.0008
vn -0.9296 0.3685 0.0063
vn 0.0283 0.0465 0.9985
vn -0.9188 0.3947 0.0079
vn 0.0301 0.0449 0.9985
vn 0.0302 0.0449 0.9985
vn -0.9178 0.3970 0.0059
vn -0.9056 0.4241 0.0079
vn -0.9289 0.3702 0.0029
vn -0.9066 0.4219 0.0072
vn -0.9280 0.3725 0.0006
vn -0.0197 -0.0469 -0.9987
vn -0.0212 -0.0461 -0.9987
vn -0.9178 0.3971 0.0031
vn -0.9178 0.3971 0.0014
vn -0.0219 -0.0443 -0.9988
vn -0.0220 -0.0442 -0.9988
vn -0.9070 0.4212 0.0034
vn -0.9072 0.4207 0.0015
vn -0.0167 -0.0415 -0.9990
vn -0.8976 0.4407 0.0076
vn -0.0168 -0.0415 -0.9990
vn -0.8993 0.4373 0.0042
vn -0.9026 0.4305 0.0020
vn -0.0018 -0.0198 -0.9998
vn -0.0035 -0.0216 -0.9998
vn 0.2047 0.3992 -0.8937
vn 0.2092 0.4086 -0.8884
vn 0.3937 0.7881 -0.4732
vn 0.3946 0.7889 -0.4710
vn -0.8943 0.4473 -0.0108
vn -0.8939 0.4482 -0.0012
vn -0.9395 0.3344 0.0735
vn -0.8873 0.4612 0.0003
vn 0.4117 0.8179 -0.4018
vn 0.4122 0.8178 -0.4016
vn -0.8956 0.4448 0.0026
vn 0.4249 0.8356 -0.3481
vn -0.8905 0.4550 0.0048
vn 0.4251 0.8356 -0.3480
vn 0.4380 0.8584 -0.2668
vn -0.8905 0.4550 0.0054
vn 0.4381 0.8584 -0.2668
vn 0.4460 0.8711 -0.2056
vn -0.8898 0.4564 0.0043
vn 0.4461 0.8710 -0.2056
vn -0.8920 0.4520 0.0048
vn 0.4502 0.8772 -0.1669
vn -0.8892 0.4575 0.0048
vn 0.4503 0.8771 -0.1669
vn 0.4527 0.8805 -0.1409
vn -0.8890 0.4579 0.0044
vn 0.4528 0.8804 -0.1409
vn -0.8917 0.4526 0.0054
vn 0.4545 0.8825 -0.1210
vn -0.8886 0.4586 0.0053
vn 0.4546 0.8825 -0.1206
vn 0.4559 0.8846 -0.0983
vn -0.8886 0.4586 0.0055
vn 0.4560 0.8846 -0.0983
vn -0.8922 0.4516 0.0061
vn 0.4575 0.8862 -0.0732
vn -0.8884 0.4590 0.0060
vn 0.4575 0.8862 -0.0731
vn 0.4580 0.8871 -0.0571
vn -0.8884 0.4591 0.0066
vn 0.4581 0.8871 -0.0571
vn 0.4597 0.8869 -0.0446
vn -0.8880 0.4598 0.0075
vn 0.4598 0.8869 -0.0446
vn -0.8906 0.4548 0.0083
vn 0.4618 0.8866 -0.0279
vn -0.8867 0.4622 0.0098
vn 0.4619 0.8865 -0.0279
vn 0.4632 0.8862 -0.0090
vn -0.8872 0.4612 0.0116
vn 0.4632 0.8862 -0.0088
vn 0.4624 0.8866 0.0076
vn -0.8854 0.4648 0.0084
vn 0.4612 0.8859 0.0498
vn -0.8905 0.4549 0.0093
vn 0.4610 0.8860 0.0498
vn -0.8877 0.4604 0.0006
vn 0.4545 0.8699 0.1916
vn -0.8971 0.4416 0.0094
vn 0.0301 0.0397 0.9988
vn 0.0294 0.0347 0.9990
vn 0.0440 0.0596 0.9973
vn -0.8868 0.4620 0.0115
vn 0.0440 0.0595 0.9973
vn 0.2114 0.3835 0.8990
vn 0.4553 0.8697 0.1909
vn 0.0439 0.0596 0.9973
vn 0.2113 0.3838 0.8989
vn -0.8887 0.4585 0.0088
vt 0.941895 0.800903
vt 0.941406 0.807007
vt 0.942871 0.802490
vt 0.928223 0.798218
vt 0.935059 0.815674
vt 0.927734 0.824707
vt 0.895508 0.837036
vt 0.919434 0.834595
vt 0.910156 0.795288
vt 0.910645 0.844238
vt 0.890137 0.792114
vt 0.901367 0.853760
vt 0.891602 0.863403
vt 0.873047 0.789429
vt 0.881348 0.872681
vt 0.844238 0.865967
vt 0.855469 0.786743
vt 0.873047 0.880188
vt 0.864258 0.887390
vt 0.855469 0.894287
vt 0.844238 0.902527
vt 0.836426 0.907593
vt 0.837402 0.783936
vt 0.831055 0.911011
vt 0.816895 0.862183
vt 0.822754 0.781616
vt 0.825684 0.913635
vt 0.820801 0.915405
vt 0.814453 0.914062
vt 0.816895 0.915588
vt 0.980957 0.596680
vt 0.983398 0.600098
vt 0.982422 0.597900
vt 0.961914 0.594482
vt 0.983398 0.611816
vt 0.958984 0.646484
vt 0.981934 0.634277
vt 0.980469 0.653076
vt 0.939941 0.591797
vt 0.978516 0.672119
vt 0.926758 0.643066
vt 0.919434 0.589355
vt 0.956543 0.690918
vt 0.976562 0.687500
vt 0.975098 0.701416
vt 0.973145 0.712891
vt 0.954102 0.721680
vt 0.971191 0.724121
vt 0.968750 0.734863
vt 0.922852 0.718262
vt 0.950195 0.742432
vt 0.966309 0.745850
vt 0.963379 0.756714
vt 0.942383 0.767456
vt 0.960449 0.766235
vt 0.956543 0.775513
vt 0.951660 0.784790
vt 0.947754 0.791382
vt 0.946777 0.792236
vt 0.944824 0.792725
vt 0.926758 0.790894
vt 0.908203 0.788818
vt 0.888184 0.786377
vt 0.884766 0.714355
vt 0.871094 0.784302
vt 0.853027 0.782104
vt 0.887207 0.638672
vt 0.898438 0.586914
vt 0.878906 0.584717
vt 0.847656 0.710938
vt 0.834961 0.779419
vt 0.819824 0.774536
vt 0.821289 0.709229
vt 0.849121 0.635010
vt 0.859375 0.582520
vt 0.822266 0.632568
vt 0.838867 0.581299
vt 0.821289 0.583252
vt 0.837402 0.785522
vt 0.822754 0.783203
vt 0.818359 0.862183
vt 0.820801 0.783203
vt 0.854980 0.788330
vt 0.815918 0.913452
vt 0.817383 0.914246
vt 0.820801 0.913818
vt 0.825195 0.912170
vt 0.830078 0.909668
vt 0.832520 0.863892
vt 0.835938 0.906250
vt 0.843262 0.901245
vt 0.848145 0.866455
vt 0.854492 0.893005
vt 0.863281 0.886169
vt 0.872559 0.791016
vt 0.863770 0.869385
vt 0.872070 0.878967
vt 0.880371 0.871460
vt 0.883789 0.849976
vt 0.890625 0.862183
vt 0.889648 0.793701
vt 0.900391 0.852539
vt 0.906738 0.824097
vt 0.909668 0.796875
vt 0.909180 0.843140
vt 0.917969 0.833496
vt 0.926758 0.823608
vt 0.927734 0.799805
vt 0.934082 0.814697
vt 0.940918 0.802124
vt 0.939941 0.806274
vt 0.941406 0.802856
vt 0.835449 0.777954
vt 0.821289 0.773804
vt 0.853516 0.780518
vt 0.822754 0.709229
vt 0.822266 0.632568
vt 0.838379 0.710205
vt 0.823730 0.632568
vt 0.839844 0.634033
vt 0.822754 0.583984
vt 0.839355 0.582764
vt 0.859375 0.584229
vt 0.858887 0.635986
vt 0.878906 0.586182
vt 0.856934 0.711670
vt 0.877441 0.637695
vt 0.898438 0.588623
vt 0.918945 0.591064
vt 0.896973 0.639648
vt 0.875000 0.713379
vt 0.916504 0.641846
vt 0.871094 0.782715
vt 0.894043 0.715332
vt 0.888672 0.784790
vt 0.908691 0.787231
vt 0.913086 0.717041
vt 0.936523 0.644043
vt 0.926758 0.789307
vt 0.932129 0.719238
vt 0.944824 0.791138
vt 0.945801 0.790894
vt 0.946777 0.790283
vt 0.950195 0.784058
vt 0.955078 0.774902
vt 0.958984 0.765747
vt 0.961914 0.756348
vt 0.964844 0.745361
vt 0.967285 0.734375
vt 0.969727 0.723633
vt 0.971680 0.712402
vt 0.973145 0.701172
vt 0.975098 0.687256
vt 0.977051 0.671875
vt 0.979004 0.652832
vt 0.980469 0.634033
vt 0.981934 0.611816
vt 0.961426 0.595947
vt 0.981445 0.600586
vt 0.939941 0.593506
vt 0.979980 0.598145
vt 0.981445 0.598877
s 1
usemtl e50:MI_Glass1
f 1/1/1 2/2/2 3/3/3
f 1/1/1 4/4/4 2/2/2
f 5/5/5 2/2/2 4/4/4
f 6/6/6 5/5/5 4/4/4
f 4/4/4 7/7/7 6/6/6
f 6/6/6 7/7/7 8/8/8
f 9/9/9 7/7/7 4/4/4
f 7/7/7 10/10/10 8/8/8
f 7/7/7 9/9/9 11/11/11
f 7/7/7 12/12/12 10/10/10
f 7/7/7 13/13/13 12/12/12
f 14/14/14 7/7/7 11/11/11
f 7/7/7 15/15/15 13/13/13
f 7/7/7 14/14/14 16/16/16
f 15/15/15 7/7/7 16/16/16
f 14/14/14 17/17/17 16/16/16
f 18/18/18 15/15/15 16/16/16
f 19/19/19 18/18/18 16/16/16
f 20/20/20 19/19/19 16/16/16
f 21/21/21 20/20/20 16/16/16
f 22/22/22 21/21/21 16/16/16
f 16/16/16 17/17/17 23/23/23
f 24/24/24 22/22/22 16/16/16
f 16/16/16 23/23/23 25/25/25
f 25/25/25 24/24/24 16/16/16
f 26/26/26 25/25/25 23/23/23
f 24/24/24 25/25/25 27/27/27
f 28/28/28 27/27/27 25/25/25
f 29/29/29 28/28/28 25/25/25
f 28/28/28 29/29/29 30/30/30
f 31/31/31 32/32/32 33/33/33
f 34/34/34 32/32/32 31/31/31
f 35/35/35 32/32/32 34/34/34
f 36/36/36 35/35/35 34/34/34
f 35/35/35 36/36/36 37/37/37
f 38/38/38 37/37/37 36/36/36
f 39/39/39 36/36/36 34/34/34
f 40/40/40 38/38/38 36/36/36
f 36/36/36 39/39/39 41/41/41
f 39/39/39 42/42/42 41/41/41
f 43/43/43 40/40/40 36/36/36
f 43/43/43 36/36/36 41/41/41
f 40/40/40 43/43/43 44/44/44
f 45/45/45 44/44/44 43/43/43
f 45/45/45 43/43/43 46/46/46
f 46/46/46 43/43/43 47/47/47
f 48/48/48 46/46/46 47/47/47
f 47/47/47 49/49/49 48/48/48
f 47/47/47 43/43/43 50/50/50
f 43/43/43 41/41/41 50/50/50
f 49/49/49 47/47/47 51/51/51
f 51/51/51 47/47/47 50/50/50
f 52/52/52 49/49/49 51/51/51
f 53/53/53 52/52/52 51/51/51
f 54/54/54 53/53/53 51/51/51
f 50/50/50 54/54/54 51/51/51
f 53/53/53 54/54/54 55/55/55
f 56/56/56 55/55/55 54/54/54
f 57/57/57 56/56/56 54/54/54
f 58/58/58 57/57/57 59/59/59
f 57/57/57 60/60/60 59/59/59
f 61/61/61 60/60/60 57/57/57
f 57/57/57 54/54/54 61/61/61
f 54/54/54 50/50/50 61/61/61
f 62/62/62 61/61/61 50/50/50
f 62/62/62 50/50/50 63/63/63
f 64/64/64 63/63/63 50/50/50
f 50/50/50 41/41/41 64/64/64
f 65/65/65 63/63/63 64/64/64
f 65/65/65 64/64/64 66/66/66
f 67/67/67 64/64/64 41/41/41
f 41/41/41 42/42/42 67/67/67
f 68/68/68 67/67/67 42/42/42
f 67/67/67 68/68/68 69/69/69
f 70/70/70 66/66/66 64/64/64
f 64/64/64 67/67/67 70/70/70
f 70/70/70 71/71/71 66/66/66
f 70/70/70 72/72/72 71/71/71
f 72/72/72 70/70/70 73/73/73
f 67/67/67 69/69/69 74/74/74
f 74/74/74 70/70/70 67/67/67
f 70/70/70 74/74/74 73/73/73
f 75/75/75 74/74/74 69/69/69
f 76/76/76 73/73/73 74/74/74
f 74/74/74 75/75/75 77/77/77
f 74/74/74 77/77/77 76/76/76
f 78/78/78 76/76/76 77/77/77
f 79/26/79 80/23/80 81/79/81
f 79/26/79 81/79/81 82/80/79
f 83/17/82 81/79/81 80/23/80
f 81/79/83 84/81/84 82/80/85
f 84/81/86 79/82/87 82/80/87
f 79/82/88 84/81/89 85/25/89
f 81/79/81 83/17/82 86/83/82
f 87/84/90 85/25/89 84/81/89
f 85/25/89 87/84/90 88/29/90
f 87/84/91 89/30/92 88/29/93
f 89/30/92 87/84/91 90/85/94
f 90/85/95 91/28/96 89/30/95
f 87/84/97 92/86/98 90/85/99
f 91/28/96 90/85/95 92/86/96
f 92/86/98 87/84/97 84/81/84
f 93/87/100 91/28/96 92/86/96
f 92/86/98 84/81/84 93/87/101
f 91/28/96 93/87/100 94/27/102
f 95/88/103 94/27/102 93/87/100
f 84/81/84 95/88/104 93/87/101
f 94/27/102 95/88/103 96/24/105
f 81/79/83 97/89/106 84/81/84
f 95/88/104 84/81/84 97/89/106
f 86/83/107 97/89/106 81/79/83
f 98/90/108 96/24/105 95/88/103
f 95/88/104 97/89/106 98/90/109
f 96/24/105 98/90/108 99/22/110
f 100/91/111 99/22/110 98/90/108
f 97/89/106 100/91/112 98/90/109
f 99/22/110 100/91/111 101/21/113
f 97/89/106 86/83/107 102/92/114
f 100/91/112 97/89/106 102/92/114
f 103/93/115 101/21/113 100/91/111
f 100/91/112 102/92/114 103/93/116
f 101/21/113 103/93/115 104/20/117
f 105/94/118 104/20/117 103/93/115
f 102/92/114 105/94/119 103/93/116
f 104/20/117 105/94/118 106/19/120
f 107/95/121 102/92/114 86/83/107
f 83/17/82 107/95/122 86/83/82
f 83/17/82 108/14/123 107/95/122
f 109/11/124 107/95/122 108/14/123
f 105/94/119 102/92/114 110/96/125
f 102/92/114 107/95/121 110/96/125
f 111/97/126 106/19/120 105/94/118
f 105/94/119 110/96/125 111/97/127
f 106/19/120 111/97/126 112/18/128
f 113/98/129 112/18/128 111/97/126
f 111/97/127 110/96/125 113/98/130
f 112/18/128 113/98/129 114/15/131
f 110/96/125 107/95/121 115/99/132
f 113/98/130 110/96/125 115/99/132
f 116/100/133 114/15/131 113/98/129
f 115/99/132 116/100/134 113/98/130
f 114/15/131 116/100/133 117/13/135
f 118/101/136 115/99/132 107/95/121
f 107/95/122 109/11/124 118/101/124
f 119/102/137 117/13/135 116/100/133
f 115/99/132 119/102/138 116/100/134
f 117/13/135 119/102/137 120/12/139
f 115/99/132 118/101/136 121/103/140
f 121/103/140 119/102/138 115/99/132
f 109/11/124 122/104/141 118/101/124
f 122/104/142 121/103/140 118/101/136
f 109/11/124 123/9/143 122/104/141
f 124/4/144 122/104/141 123/9/143
f 125/105/145 120/12/139 119/102/137
f 121/103/140 125/105/146 119/102/138
f 120/12/139 125/105/145 126/10/147
f 127/106/148 126/10/147 125/105/145
f 121/103/140 127/106/149 125/105/146
f 126/10/147 127/106/148 128/8/150
f 129/107/151 128/8/150 127/106/148
f 127/106/149 121/103/140 129/107/152
f 128/8/150 129/107/151 130/6/153
f 122/104/142 131/108/154 121/103/140
f 121/103/140 131/108/154 129/107/152
f 122/104/141 124/4/144 131/108/155
f 132/109/156 130/6/153 129/107/151
f 129/107/152 131/108/154 132/109/157
f 130/6/153 132/109/156 133/5/156
f 124/4/144 134/110/158 131/108/155
f 124/4/144 135/1/159 134/110/158
f 132/109/157 131/108/154 136/111/160
f 136/111/161 133/5/156 132/109/156
f 131/108/154 134/110/162 136/111/160
f 133/5/156 136/111/161 137/2/163
f 135/1/164 138/112/165 134/110/166
f 136/111/160 134/110/162 138/112/167
f 138/112/168 137/2/163 136/111/161
f 135/1/164 139/3/169 138/112/165
f 137/2/163 138/112/168 139/3/170
f 140/72/171 141/113/172 142/71/172
f 143/66/173 142/71/172 141/113/172
f 141/113/174 140/72/174 144/114/174
f 145/73/175 144/114/176 140/72/177
f 143/66/173 141/113/172 146/115/173
f 144/114/176 145/73/175 147/116/175
f 148/117/178 147/116/175 145/73/175
f 144/114/179 149/118/180 141/113/181
f 149/118/180 144/114/179 147/116/182
f 147/116/175 148/117/178 150/119/183
f 151/78/184 150/119/183 148/117/178
f 152/120/185 149/118/180 147/116/182
f 152/120/185 147/116/182 150/119/186
f 150/119/183 151/78/187 153/121/187
f 154/77/188 153/121/189 151/78/190
f 155/122/191 150/119/186 153/121/192
f 153/121/189 154/77/188 155/122/193
f 155/122/191 152/120/185 150/119/186
f 156/75/194 155/122/193 154/77/188
f 157/123/195 152/120/185 155/122/191
f 155/122/193 156/75/194 157/123/194
f 152/120/185 157/123/195 158/124/196
f 158/124/196 149/118/180 152/120/185
f 156/75/194 159/125/197 157/123/194
f 159/125/198 158/124/196 157/123/195
f 156/75/194 160/69/197 159/125/197
f 161/68/199 159/125/197 160/69/197
f 149/118/180 158/124/196 162/126/200
f 162/126/200 141/113/181 149/118/180
f 141/113/181 162/126/200 146/115/201
f 159/125/198 163/127/202 158/124/196
f 163/127/202 162/126/200 158/124/196
f 159/125/197 161/68/199 164/128/203
f 164/128/204 163/127/202 159/125/198
f 161/68/199 165/129/205 164/128/203
f 161/68/199 166/42/206 165/129/205
f 163/127/202 164/128/204 167/130/207
f 165/129/208 167/130/207 164/128/204
f 163/127/202 168/131/209 162/126/200
f 167/130/207 168/131/209 163/127/202
f 168/131/209 146/115/201 162/126/200
f 165/129/208 169/132/210 167/130/207
f 168/131/209 170/133/211 146/115/201
f 170/133/212 143/66/173 146/115/173
f 143/66/173 170/133/212 171/65/212
f 172/63/213 171/65/212 170/133/212
f 167/130/207 173/134/214 168/131/209
f 173/134/214 170/133/211 168/131/209
f 169/132/210 173/134/214 167/130/207
f 172/63/213 170/133/212 174/135/213
f 173/134/214 174/135/215 170/133/211
f 175/136/216 172/63/213 174/135/213
f 172/63/213 175/136/216 176/62/217
f 177/137/218 174/135/215 173/134/214
f 177/137/218 175/136/219 174/135/215
f 169/132/210 177/137/218 173/134/214
f 178/61/220 176/62/217 175/136/216
f 179/138/221 177/137/218 169/132/210
f 178/61/220 175/136/216 180/139/222
f 181/140/223 175/136/219 177/137/218
f 181/140/223 180/139/224 175/136/219
f 177/137/218 179/138/221 181/140/223
f 182/141/225 178/61/220 180/139/222
f 178/61/220 182/141/225 183/60/226
f 184/59/227 183/60/226 182/141/225
f 184/59/227 182/141/225 185/142/228
f 186/143/229 184/59/227 185/142/228
f 184/59/227 186/143/229 187/58/230
f 182/141/231 188/144/232 185/142/233
f 186/143/234 185/142/233 188/144/232
f 188/144/235 187/58/230 186/143/229
f 180/139/224 188/144/232 182/141/231
f 187/58/230 188/144/235 189/57/236
f 188/144/232 180/139/224 190/54/237
f 181/140/223 190/54/237 180/139/224
f 191/145/238 189/57/236 188/144/235
f 188/144/232 190/54/237 191/145/239
f 189/57/236 191/145/238 192/56/240
f 193/146/241 192/56/240 191/145/238
f 191/145/239 190/54/237 193/146/242
f 192/56/240 193/146/241 194/55/243
f 195/147/244 194/55/243 193/146/241
f 190/54/237 195/147/245 193/146/242
f 194/55/243 195/147/244 196/53/246
f 195/147/245 190/54/237 197/51/247
f 190/54/237 181/140/223 197/51/247
f 198/148/248 196/53/246 195/147/244
f 195/147/245 197/51/247 198/148/249
f 196/53/246 198/148/248 199/52/250
f 200/149/251 199/52/250 198/148/248
f 198/148/249 197/51/247 200/149/252
f 199/52/250 200/149/251 201/49/253
f 197/51/247 181/140/223 202/47/254
f 202/47/254 200/149/252 197/51/247
f 203/150/255 201/49/253 200/149/251
f 200/149/252 202/47/254 203/150/256
f 201/49/253 203/150/255 204/48/257
f 205/151/258 204/48/257 203/150/255
f 203/150/256 202/47/254 205/151/259
f 204/48/257 205/151/258 206/46/260
f 207/43/261 202/47/254 181/140/223
f 205/151/259 202/47/254 207/43/261
f 181/140/223 179/138/221 207/43/261
f 208/152/262 206/46/260 205/151/258
f 205/151/259 207/43/261 208/152/263
f 206/46/260 208/152/262 209/45/264
f 210/153/265 209/45/264 208/152/262
f 208/152/263 207/43/261 210/153/266
f 209/45/264 210/153/265 211/44/267
f 212/154/268 211/44/267 210/153/265
f 207/43/261 212/154/269 210/153/266
f 211/44/267 212/154/268 213/40/270
f 212/154/269 207/43/261 214/36/271
f 207/43/261 179/138/221 214/36/271
f 215/155/272 213/40/270 212/154/268
f 212/154/269 214/36/271 215/155/273
f 213/40/270 215/155/272 216/38/274
f 217/156/275 216/38/274 215/155/272
f 215/155/273 214/36/271 217/156/276
f 216/38/274 217/156/275 218/37/277
f 219/157/278 218/37/277 217/156/275
f 214/36/271 219/157/279 217/156/276
f 218/37/277 219/157/278 220/35/278
f 221/32/280 220/35/278 219/157/278
f 219/157/279 214/36/271 222/158/281
f 222/158/281 214/36/271 179/138/221
f 221/32/280 219/157/278 223/159/282
f 219/157/279 222/158/281 223/159/283
f 224/33/284 221/32/280 223/159/282
f 222/158/281 179/138/221 225/160/285
f 225/160/285 179/138/221 169/132/210
f 225/160/285 169/132/210 165/129/208
f 166/42/206 225/160/286 165/129/205
f 166/42/206 226/39/286 225/160/286
f 227/34/287 225/160/286 226/39/286
f 225/160/286 227/34/287 222/158/287
f 227/34/287 228/161/288 222/158/287
f 222/158/281 228/161/289 223/159/283
f 227/34/287 229/31/290 228/161/288
f 224/33/291 228/161/288 229/31/290
f 224/33/284 223/159/282 230/162/292
f 228/161/293 224/33/291 230/162/294
f 223/159/283 228/161/289 230/162/295
